<svg width="345" height="263" viewBox="0 0 345 263" fill="none" xmlns="http://www.w3.org/2000/svg">
<path fill-rule="evenodd" clip-rule="evenodd" d="M304.74 94.2565C305.031 94.8554 306.138 95.0369 306.864 95.164C312.781 96.2167 338.427 96.7612 340.895 94.6376C343.055 92.8226 341.857 63.1655 339.751 61.9676C337.029 60.3523 307.336 60.0437 305.266 61.6954C303.76 62.9477 302.816 90.0638 304.74 94.2565ZM305.72 62.0765C307.372 60.6971 336.376 61.7317 338.989 63.0022C340.387 66.7411 341.294 90.2272 339.933 93.5668C337.719 95.0914 310.584 95.0369 305.847 93.5668C303.996 89.12 304.686 62.9477 305.72 62.0765ZM232.558 58.9003C231.838 60.1316 230.866 61.1967 229.705 62.0257C228.545 62.8546 227.222 63.4287 225.824 63.71C225.781 63.6991 225.736 63.698 225.693 63.707C225.649 63.716 225.609 63.7348 225.574 63.762C225.539 63.7891 225.511 63.8239 225.491 63.8636C225.472 63.9034 225.461 63.9471 225.461 63.9914C225.461 64.0356 225.472 64.0793 225.491 64.1191C225.511 64.1588 225.539 64.1936 225.574 64.2208C225.609 64.2479 225.649 64.2667 225.693 64.2757C225.736 64.2847 225.781 64.2837 225.824 64.2727C229.018 65.1076 233.175 62.2036 233.175 59.0092C233.189 58.9274 233.17 58.8431 233.123 58.7751C233.075 58.707 233.002 58.6606 232.921 58.6462C232.839 58.6317 232.755 58.6504 232.686 58.6981C232.618 58.7457 232.572 58.8185 232.558 58.9003ZM217.729 42.656V44.471C217.729 44.7117 217.825 44.9425 217.995 45.1127C218.165 45.2829 218.396 45.3785 218.637 45.3785C218.876 45.3739 219.104 45.2768 219.273 45.1076C219.442 44.9384 219.539 44.7103 219.544 44.471V42.656C219.544 42.4153 219.448 42.1845 219.278 42.0143C219.108 41.8441 218.877 41.7485 218.637 41.7485C218.396 41.7485 218.165 41.8441 217.995 42.0143C217.825 42.1845 217.729 42.4153 217.729 42.656ZM235.825 44.3803C235.825 44.621 235.92 44.8518 236.09 45.022C236.261 45.1922 236.491 45.2878 236.732 45.2878C236.973 45.2878 237.204 45.1922 237.374 45.022C237.544 44.8518 237.64 44.621 237.64 44.3803V42.1297C237.64 41.889 237.544 41.6582 237.374 41.488C237.204 41.3178 236.973 41.2222 236.732 41.2222C236.491 41.2222 236.261 41.3178 236.09 41.488C235.92 41.6582 235.825 41.889 235.825 42.1297C235.752 42.9101 235.825 43.8176 235.825 44.3803Z" fill="black"/>
<path fill-rule="evenodd" clip-rule="evenodd" d="M341.059 175.677C340.94 175.475 340.771 175.306 340.569 175.187C339.008 174.425 330.513 174.806 328.753 174.879C329.061 127.271 303.978 97.5778 267.569 89.0655C260.89 87.5046 260.872 87.3957 260.69 87.5046L259.456 84.1105C262.941 84.0016 265.791 81.3154 268.985 81.8599C271.399 82.2592 272.615 84.4009 274.993 85.3084C279.022 86.833 286.191 84.4917 288.387 80.662C289.513 78.6655 288.514 76.5964 289.222 75.217C290.493 74.1099 294.105 72.3312 295.139 71.0425C297.263 68.3926 297.353 62.4576 296.391 59.245C294.655 55.6097 292.289 52.3101 289.404 49.4985C286.265 46.4738 283.482 43.1002 281.109 39.4434C278.187 33.6172 278.078 25.5586 275.664 19.4784C273.003 13.9885 268.885 9.33581 263.758 6.02922C258.75 2.49227 252.713 0.711766 246.588 0.965371C240.871 1.32837 238.638 3.76047 235.97 4.59537C233.302 5.43027 232.739 4.59537 228.402 6.50112C226.679 7.55055 225.145 8.88194 223.864 10.4397C223.32 11.0205 223.356 11.0568 222.43 11.0931C221.433 11.0181 220.432 11.0181 219.435 11.0931C217.736 11.4702 216.111 12.1265 214.626 13.0351C204.516 19.0972 207.239 31.294 203.427 40.2601C200.832 46.3585 193.608 52.221 192.991 58.5916C192.772 61.5208 193.402 64.451 194.806 67.0314C199.216 74.7814 205.551 68.7012 208.836 73.4383C209.87 74.9266 210.651 76.3786 212.575 76.669C215.025 76.9957 218.365 75.0537 220.361 73.6198C220.781 74.1089 221.256 74.5475 221.777 74.9266C223.546 76.1194 225.446 77.1059 227.44 77.8669L222.829 84.3102C214.19 83.3301 200.922 86.1252 192.374 88.7569C192.065 86.5789 189.379 68.5923 187.346 67.7211C184.533 66.4869 155.003 69.9172 153.206 71.8593C151.881 73.275 154.259 100.228 156.836 104.257C157.217 104.874 158.524 104.892 159.25 104.91C155.003 107.814 150.901 110.755 149.431 111.826C148.287 107.869 142.28 86.9419 140.065 83.5116C139.43 82.5133 138.849 82.5315 135.927 83.5116C134.262 75.2011 132.153 66.9856 129.611 58.9002C130.564 57.3332 131.326 55.6574 131.88 53.9089C132.556 51.1395 132.655 48.2604 132.17 45.451C134.385 46.1952 147.616 49.8252 149.758 48.7725C150.333 48.362 150.76 47.7761 150.974 47.1027C153.315 41.9844 157.326 24.5059 157.635 18.9702C157.762 18.2613 157.64 17.5304 157.29 16.9011C155.166 14.6868 126.598 6.46482 124.184 7.55382C122.714 8.22537 118.739 21.2752 118.322 22.818C114.855 34.4521 116.616 31.893 114.692 32.5645C112.477 33.345 110.572 38.0095 109.791 40.1694C109.011 42.3292 108.194 45.2332 109.12 46.9393C108.744 47.6332 108.593 48.4266 108.687 49.2101C108.781 49.9936 109.116 50.7286 109.646 51.3135C109.069 51.9569 108.693 52.7551 108.564 53.6097C108.435 54.4644 108.559 55.3381 108.92 56.1232C109.446 57.7749 112.732 58.8639 114.365 59.3358C113.075 62.8112 112.002 66.3634 111.153 69.9717C109.705 75.5709 108.548 81.2413 107.686 86.9601C107.149 89.7391 106.972 92.5756 107.16 95.3998L104.183 96.7429C104.068 96.7954 103.972 96.8799 103.904 96.9861C103.836 97.0924 103.801 97.2159 103.802 97.3419C103.802 97.3419 104.364 119.34 111.606 137.617C120.355 159.742 134.748 167.147 156.655 158.87C156.852 160.607 157.279 162.31 157.925 163.934C158.252 164.515 159.359 164.624 160.103 164.697C166.546 164.908 172.997 164.707 179.415 164.098L184.86 198.583C183.39 202.83 166.71 251.218 166.946 255.719C166.946 256.191 167.127 256.554 167.908 256.917C172.717 259.149 218.292 265.102 220.016 260.129C220.452 258.913 221.505 251.163 221.704 249.693L247.35 246.862L271.798 248.477C272.062 250.925 272.498 253.351 273.105 255.737C273.323 256.281 273.577 256.572 274.212 256.517C276.626 256.281 289.494 253.958 293.052 253.287C306.701 250.709 306.392 250.492 305.993 249.148C305.031 245.972 296.101 221.197 292.616 209.636C297.714 210.18 302.855 210.18 307.953 209.636C308.008 209.832 308.112 210.012 308.255 210.158C308.397 210.304 308.574 210.411 308.77 210.471C312.091 211.687 341.766 209.999 344.199 207.567C346.395 205.625 342.71 178.436 341.059 175.677ZM124.221 8.33427C124.42 8.02572 124.348 7.89867 125.945 8.13462C132.606 9.07842 154.386 16.1025 156.273 17.7541C156.636 21.9105 151.246 44.725 149.122 47.4838C147.58 48.0102 137.343 45.3966 135.764 44.9791C123.749 41.8392 124.221 41.3491 121.48 40.7139C120.064 40.2238 119.919 40.2057 119.955 40.006C119.96 39.9611 119.981 39.9195 120.014 39.8893C120.048 39.8591 120.092 39.8424 120.137 39.8427C121.77 39.8427 126.144 39.7156 127.215 38.4451C127.452 38.1868 127.628 37.8794 127.732 37.5449C127.836 37.2105 127.864 36.8573 127.816 36.5105C127.767 36.1637 127.643 35.8319 127.451 35.5388C127.259 35.2458 127.005 34.9986 126.707 34.8151C124.374 33.8806 121.936 33.2345 119.447 32.8912C118.703 32.746 117.795 32.4919 116.888 32.383C118.14 26.7202 122.278 11.3472 124.221 8.33427ZM108.63 94.8009V91.9876C108.793 88.5391 110.445 79.4823 110.935 76.9957C111.733 72.9664 111.915 72.0589 114.238 63.3106C114.238 63.0747 115.636 59.1724 115.636 59.1724C115.661 59.1047 115.671 59.0323 115.666 58.9603C115.661 58.8882 115.64 58.8181 115.606 58.7545C115.572 58.691 115.524 58.6355 115.467 58.5917C115.409 58.548 115.343 58.517 115.273 58.5009C115.073 58.5009 110.354 57.3393 109.828 55.8328C109.301 54.3264 109.192 52.5114 110.517 51.7128C110.566 51.6774 110.606 51.631 110.633 51.5774C110.66 51.5238 110.675 51.4644 110.675 51.4042C110.675 51.344 110.66 51.2847 110.633 51.231C110.606 51.1774 110.566 51.131 110.517 51.0957C109.937 50.6195 109.547 49.9513 109.417 49.2121C109.287 48.473 109.426 47.7118 109.809 47.0664C110.227 46.2133 107.994 46.6308 110.644 40.5142C111.316 39.0078 113.585 34.3795 115.127 33.8713C116.493 33.738 117.872 33.8926 119.175 34.3251C121.45 34.6834 123.686 35.2546 125.854 36.0312C125.992 36.1053 126.111 36.2102 126.201 36.3378C126.292 36.4654 126.352 36.6122 126.377 36.7668C126.401 36.9214 126.39 37.0796 126.343 37.229C126.297 37.3785 126.216 37.5151 126.108 37.6284C125.311 38.0803 124.437 38.3817 123.531 38.5177C117.814 39.643 118.83 38.3907 118.086 40.3327C115.902 40.2046 113.718 40.5965 111.715 41.4762C110.935 41.6395 111.261 42.1477 111.824 42.057C114.256 41.2601 116.857 41.1284 119.356 41.6758C120.807 41.9409 122.224 42.3607 123.585 42.9282C124.819 43.4295 125.915 44.22 126.78 45.2332C126.934 45.6172 126.992 46.0332 126.947 46.4447C126.903 46.8562 126.758 47.2504 126.526 47.5927C126.09 48.2643 123.985 47.8105 123.186 47.5927C122.097 47.266 120.954 46.9938 119.883 46.6489C118.376 46.177 118.54 46.05 118.068 46.0863C116.403 46.3221 114.775 46.7673 113.222 47.4112C113.178 47.4162 113.135 47.4312 113.098 47.4551C113.061 47.4789 113.03 47.5109 113.007 47.5487C112.984 47.5864 112.97 47.6289 112.965 47.673C112.961 47.717 112.967 47.7614 112.983 47.8027C112.999 47.8441 113.024 47.8813 113.056 47.9115C113.088 47.9418 113.127 47.9643 113.169 47.9773C113.211 47.9903 113.256 47.9935 113.3 47.9866C113.344 47.9797 113.385 47.9629 113.421 47.9376C114.811 47.5456 116.232 47.2724 117.668 47.1208C118.485 47.1208 117.959 47.1208 120.01 47.9376C120.935 48.2824 121.825 48.5547 122.805 48.8814C123.435 49.0974 124.086 49.2494 124.747 49.3351C125.908 50.4241 126.743 52.9651 125.182 53.4189C124.569 53.5246 123.938 53.4489 123.367 53.2011C119.211 51.8398 122.024 50.8597 113.004 52.711C112.93 52.7201 112.863 52.7572 112.815 52.8146C112.768 52.872 112.745 52.9454 112.75 53.0196C112.75 53.4915 113.058 53.2011 118.05 53.0196C118.653 52.9589 119.261 52.9589 119.865 53.0196C121.425 53.8182 123.749 55.1794 125.545 54.6531C127.742 53.9452 127.669 51.5131 126.253 49.7344C125.745 49.1173 125.691 49.2988 126.126 49.2262C126.445 49.1917 126.753 49.0916 127.031 48.9323C127.309 48.773 127.551 48.5579 127.742 48.3006C128.171 47.7076 128.412 46.9986 128.431 46.2665C128.451 45.5344 128.248 44.8136 127.851 44.1987L130.9 45.1062C131.503 47.9173 131.454 50.8296 130.755 53.6185C130.56 54.2994 130.305 54.9615 129.992 55.5969C128.667 58.392 128.177 58.4827 128.341 59.0091C130.863 67.2099 132.941 75.5407 134.566 83.9653C127.723 86.3611 115.182 91.8787 108.63 94.8009ZM252.251 220.925C260.019 221.252 276.717 221.851 284.376 221.615C283.85 223.902 283.523 225.354 283.432 225.681C279.784 225.681 256.207 221.597 252.251 220.925ZM287.316 220C282.452 221.143 219.308 218.675 213.9 216.37C214.462 212.304 219.762 189.453 220.833 184.789C225.597 186.247 230.553 186.981 235.534 186.967C237.349 187.91 240.344 189.544 242.141 190.397C241.941 191.94 241.451 195.588 242.54 196.677C243.629 197.766 268.695 206.968 290.674 209.545C289.788 213.1 288.666 216.593 287.316 220ZM220.252 176.313C219.416 176.059 218.643 175.632 217.983 175.06C217.512 174.552 217.675 173.009 217.983 172.283C218.152 171.93 218.452 171.657 218.818 171.521C219.261 171.328 219.734 171.212 220.216 171.176C220.36 171.173 220.5 171.125 220.616 171.041C220.733 170.956 220.821 170.837 220.868 170.701C220.915 170.565 220.92 170.417 220.881 170.278C220.843 170.14 220.762 170.016 220.651 169.924C219.59 169.029 218.85 167.812 218.546 166.457C218.546 165.459 218.927 164.424 220.524 163.517C222.339 163.662 227.784 168.163 230.307 165.568C232.83 162.972 229.854 156.892 232.667 156.384C235.48 155.876 236.896 164.334 237.386 165.259C239.019 168.435 243.412 170.704 245.916 173.318C244.404 178.728 243.192 184.218 242.286 189.762C238.656 187.82 235.97 186.132 235.698 186.132C231.904 186.005 221.722 184.952 219.072 182.248C218.601 181.884 218.279 181.36 218.165 180.776C218.051 180.191 218.155 179.585 218.455 179.071C218.648 178.73 218.909 178.432 219.221 178.195C219.533 177.958 219.89 177.787 220.27 177.692C220.426 177.654 220.564 177.564 220.662 177.438C220.76 177.311 220.812 177.155 220.81 176.995C220.808 176.835 220.752 176.68 220.65 176.556C220.549 176.432 220.409 176.346 220.252 176.313ZM240.471 115.873C237.099 115.55 233.712 115.417 230.325 115.474C229.89 115.474 229.527 115.692 229.4 116.109C229.091 117.271 223.955 155.023 223.701 156.874C222.612 138.724 221.486 119.612 220.651 105.6C226.968 115.673 227.512 116.672 228.51 115.964C231.876 113.196 235.059 110.213 238.039 107.034C238.584 109.049 239.455 112.334 240.471 115.873ZM257.079 109.502C255.844 107.687 254.628 105.872 254.175 105.201L260.037 90.4449L257.079 109.502ZM261.307 88.6662C268.172 90.0818 274.866 92.2297 281.272 95.0731C281 95.9262 277.497 106.635 273.305 119.412C271.381 119.176 260.364 117.833 256.97 117.47L261.307 88.6662ZM253.884 107.215L256.752 111.535L255.844 117.343L253.031 116.98C253.449 113.042 253.739 109.303 253.884 107.215ZM303.996 126.364C303.973 128.727 303.743 131.083 303.307 133.406C297.081 131.809 242.776 118.45 237.259 121.59C234.5 123.187 225.425 160.431 224.554 163.789L223.9 163.462C226.768 143.298 230.58 116.853 230.58 116.781C236.769 116.073 296.391 122.824 303.996 126.364ZM272.325 164.315C268.259 164.043 252.124 163.245 248.73 165.495C248.203 165.858 247.985 165.931 246.116 172.646C243.702 170.087 239.655 167.673 238.293 164.824C237.676 163.571 236.678 154.424 232.449 155.131C226.75 156.093 234.028 167.836 225.606 164.206C226.151 161.901 235.081 123.46 237.567 122.044C242.831 119.049 300.239 133.66 307.499 135.711C307.082 140.14 301.746 163.771 300.766 168.091C291.366 166.284 281.87 165.024 272.325 164.315ZM244.374 37.3561C245.39 38.0458 245.354 39.6975 245.172 40.8954C243.902 49.0084 235.77 53.9271 230.126 46.1589C228.837 44.3439 227.839 38.5722 228.71 37.3017C229.291 36.5575 233.974 36.5212 234.917 36.5212C236.66 36.5394 243.466 36.8116 244.301 37.3561H244.374ZM222.757 38.6629C222.757 42.0751 221.613 47.7379 218.582 49.3714C213.7 51.9124 208.745 47.8831 208.618 42.6378C208.432 40.7228 208.524 38.7911 208.89 36.9024L209.072 36.8116C208.781 36.3034 221.541 36.1401 222.684 37.2835C222.723 37.7425 222.723 38.2039 222.684 38.6629H222.757ZM229.073 78.1755C232.213 79.083 237.277 78.6474 239.709 76.1608C239.76 76.1069 239.788 76.0354 239.788 75.9612C239.788 75.8869 239.76 75.8155 239.709 75.7615C239.292 75.2533 239.709 76.2334 234.99 76.9413C230.271 77.6491 227.421 76.9413 222.648 73.8376C220.454 71.8219 218.811 69.2792 217.875 66.4506C215.92 61.6634 214.697 56.6096 214.245 51.4587C215.953 51.7384 217.706 51.4515 219.236 50.6419C220.721 49.7734 221.872 48.4311 222.503 46.8304C221.89 48.7484 221.387 50.6997 220.996 52.6747C220.911 52.9276 220.899 53.1992 220.96 53.4589C221.02 53.7186 221.153 53.9562 221.341 54.1449C222.596 54.9119 224.074 55.2318 225.534 55.0524C225.577 55.0634 225.622 55.0644 225.665 55.0554C225.708 55.0464 225.749 55.0276 225.784 55.0004C225.819 54.9733 225.847 54.9385 225.867 54.8988C225.886 54.859 225.896 54.8153 225.896 54.771C225.896 54.7268 225.886 54.6831 225.867 54.6433C225.847 54.6036 225.819 54.5688 225.784 54.5416C225.749 54.5145 225.708 54.4957 225.665 54.4867C225.622 54.4777 225.577 54.4787 225.534 54.4897C224.457 54.3699 223.418 54.0235 222.485 53.4733C222.067 53.1829 222.249 53.3644 222.376 52.7655C222.503 52.1665 224.862 43.509 224.989 42.9645C225.552 42.9645 227.694 42.6741 227.694 42.1477C227.694 41.6214 225.988 41.4762 225.352 41.5125C225.352 41.2765 225.461 41.0769 225.516 40.8954C225.545 40.8232 225.544 40.7424 225.513 40.671C225.482 40.5995 225.425 40.5431 225.352 40.5142C225.28 40.4853 225.199 40.4863 225.128 40.517C225.056 40.5476 225 40.6054 224.971 40.6776C224.336 41.9118 224.772 41.458 223.918 41.6758C224.246 39.9976 224.246 38.272 223.918 36.5938C222.884 34.9966 216.658 35.3596 214.626 35.4867C215.66 29.4064 219.69 26.4117 222.158 21.5475C222.85 20.4184 223.771 19.4476 224.862 18.6979C225.407 18.5527 226.478 19.914 227.131 20.2407C227.784 20.5674 228.402 22.3642 228.946 22.9813C230.658 24.9307 232.631 26.6347 234.808 28.0452C236.623 29.3338 239.455 29.5335 240.689 31.1851C241.21 32.5896 241.463 34.0796 241.433 35.5774C239.092 35.4322 229.327 35.287 228.166 36.9568C227.113 38.2999 227.567 44.4346 229.109 46.7941C232.993 52.6747 238.965 53.0377 243.629 47.7379C244.131 47.1123 244.557 46.4301 244.9 45.7051C248.385 51.1501 251.125 54.399 251.252 60.7878C251.398 68.8827 249.111 82.2955 257.877 83.9835L259.384 88.1398C252.124 106.399 252.505 105.255 252.505 105.437C252.505 105.618 252.16 110.882 251.525 116.908C248.04 116.545 244.791 116.236 241.905 116C241.687 115.256 238.983 105.636 239.037 105.437C239.31 104.529 237.948 102.751 236.896 101.172C232.948 95.4561 228.638 89.9998 223.991 84.8365L229.073 78.1755ZM222.684 85.3266C222.993 85.7985 236.061 100.173 237.658 105.455C234.722 108.71 231.549 111.743 228.166 114.53C226.95 112.933 223.664 107.669 220.543 102.751C219.98 93.2581 219.599 86.6515 219.508 85.2721C220.524 85.1995 221.668 85.254 222.612 85.3266H222.684ZM157.871 103.477C155.802 99.8466 152.934 76.2516 153.605 72.6216C153.605 72.2949 153.605 72.186 155.13 71.7685C161.628 70.0806 184.424 68.1385 186.82 68.9553C188.635 72.4945 192.61 95.5995 191.666 99.1569C189.815 100.645 163.207 104.402 157.798 103.477H157.871ZM159.141 163.19C157.054 159.088 155.511 132.789 156.546 131.791C158.088 130.302 187.056 129.032 189.796 130.103C191.611 133.914 194.189 157.328 193.118 160.504C190.65 162.355 163.425 164.17 159.069 163.19H159.141ZM200.578 132.771C201.884 132.426 210.996 130.103 212.085 129.449C212.865 128.995 213.754 130.466 198.49 88.5754C200.305 86.9056 216.168 84.7639 218.673 85.5444C218.673 86.5426 221.051 128.905 222.92 162.9C222.031 162.464 220.742 161.793 219.925 162.246C216.513 164.061 216.295 167.074 218.818 170.014C218.347 170.13 217.91 170.354 217.541 170.67C217.172 170.985 216.882 171.382 216.695 171.829C216.404 172.511 216.28 173.252 216.334 173.99C216.388 174.729 216.617 175.444 217.003 176.077C217.427 176.482 217.91 176.818 218.437 177.075C217.895 177.438 217.467 177.948 217.203 178.545C216.965 179.059 216.823 179.613 216.786 180.178L200.578 132.771ZM245.753 245.718L222.049 248.35C222.158 247.479 224.826 226.443 225.679 219.31C230.616 219.745 236.569 220.127 242.94 220.471C243.992 233.558 245.844 242.596 245.68 245.718H245.753ZM247.005 245.573C247.259 241.435 243.847 220.689 243.829 220.508L245.644 220.599C251.815 221.742 267.714 224.555 269.439 224.846C270.019 230.69 271.471 244.302 271.816 247.098C244.755 245.355 247.677 245.5 246.915 245.573H247.005ZM343.309 206.732C341.494 208.184 314.832 210.616 309.332 209.418C307.209 205.298 305.702 179.017 306.737 178.019C308.298 176.512 337.265 175.278 339.97 176.331C341.676 180.124 344.307 203.628 343.237 206.732H343.309Z" fill="black"/>
<path fill-rule="evenodd" clip-rule="evenodd" d="M159.178 193.392C159.032 192.738 158.833 191.795 158.306 191.577C156.491 190.488 144.531 190.27 142.407 190.234C141.935 181.576 141.1 171.575 139.739 168.889C138.85 167.074 80.1888 166.893 78.1742 166.875C78.3194 157.11 78.3375 142.227 78.1742 132.39C80.7333 132.39 93.5109 132.39 95.2715 130.938C97.5221 129.123 96.0156 104.892 94.9992 100.083C94.854 99.4292 94.6362 98.4854 94.128 98.2676C91.4781 96.6886 61.7484 96.3074 59.643 97.9954C58.5359 98.921 58.1184 110.265 58.064 111.699C53.9076 111.699 28.2072 111.172 19.0233 111.39V96.5615C21.401 96.5615 35.3583 96.9427 37.1733 95.4181C39.3695 93.6031 38.6435 63.946 36.5562 62.7481C34.469 61.5502 21.4373 61.169 19.1867 61.1146C19.1867 58.5373 18.987 52.0396 18.9689 51.8762C27.3723 51.5677 49.5153 52.2755 58.6448 52.2755C58.6448 55.1251 58.4814 65.2709 59.6793 67.8664C59.9697 68.4835 61.0769 68.665 61.8029 68.792C67.5746 69.8084 93.3113 70.4074 95.8341 68.2657C98.357 66.124 96.5964 38.9897 95.1263 36.0676C95.0289 35.8575 94.8788 35.6762 94.6907 35.5412C91.95 33.9259 62.2566 33.7262 60.2057 35.269C59.0259 36.2672 58.6266 49.2626 58.5903 50.8235C49.3157 50.8235 27.4994 50.1157 18.86 50.4242C18.86 46.9213 18.6785 43.382 18.6785 39.8972C21.2558 39.8972 36.8285 39.6613 38.7705 37.9552C40.7126 36.2491 38.7705 8.75185 37.2096 5.77525C37.1126 5.5643 36.9545 5.38729 36.7559 5.26705C33.9971 3.7243 4.30366 4.1962 2.27086 5.9023C0.728113 7.2454 0.455863 34.3796 2.52496 38.5723C2.66751 38.8064 2.88497 38.9855 3.14206 39.0805C5.21116 39.9517 14.867 39.9698 17.1357 39.9698C17.1357 48.0829 17.4987 54.6713 17.5713 61.1509C15.7563 61.1509 3.37801 60.8786 1.99861 61.9858C0.619213 63.0929 -1.05059 90.209 0.873313 94.6558C1.14556 95.2547 2.25271 95.4725 2.97871 95.5996C7.7889 96.2942 12.6391 96.6762 17.4987 96.743V123.532C15.7745 123.532 3.95881 123.315 2.63386 124.385C1.30891 125.456 -0.433486 152.609 1.49041 157.055C1.76266 157.673 2.86981 157.872 3.59581 158.017C9.47641 159.143 35.1042 160.123 37.6271 158.017C40.1499 155.912 38.8431 128.705 37.4637 125.819C37.3655 125.605 37.2159 125.418 37.0281 125.275C35.0498 124.077 21.2921 123.678 18.8781 123.623V113.132C28.2798 112.897 52.9275 113.423 57.9006 113.441C57.9006 116.508 57.6102 128.07 58.917 130.883C59.0356 131.127 59.2437 131.315 59.4978 131.41C61.8392 132.48 74.0178 132.698 76.5044 132.716C76.7403 142.59 76.7222 157.509 76.5044 167.201C52.1108 167.074 26.8097 167.328 21.7095 168.363C21.165 168.472 20.2757 168.653 20.2394 169.416C20.2394 169.416 19.2593 185.097 18.8055 190.488C17.1902 190.488 6.57241 190.488 5.33821 191.577C4.10401 192.666 2.74276 219.854 4.73926 224.247C5.01151 224.846 6.11866 225.045 6.84466 225.172C12.6345 226.189 38.3531 226.788 40.8759 224.646C43.3988 222.504 41.6201 195.316 40.1681 192.448C40.2409 192.275 40.2642 192.084 40.2354 191.899C40.2065 191.713 40.1267 191.538 40.0047 191.395C37.9175 190.143 23.0163 190.034 20.5479 190.016C20.9835 184.571 21.9273 169.416 21.9273 169.416C28.1346 167.601 131.39 167.818 138.614 169.652C139.721 172.301 140.429 181.395 141.009 190.088C139.194 190.088 125.4 189.98 123.967 191.177C122.533 192.375 121.444 219.619 123.368 223.847C123.495 224.091 123.709 224.279 123.967 224.374C127.179 225.826 156.891 226.479 159.504 224.247C159.954 223.703 160.215 223.028 160.248 222.323C161.102 216.805 160.357 198.837 159.178 193.392ZM60.5868 35.4868C62.2022 34.1437 91.1696 35.1056 93.8558 36.4124C94.5298 39.2771 94.9189 42.2014 95.0174 45.1426C83.3832 43.9628 67.6653 44.8703 59.643 45.1426C59.6793 44.0536 59.9697 35.9224 60.5868 35.4323V35.4868ZM59.6249 46.1408C72.8381 46.5583 88.5197 45.8686 95.0718 45.9412C95.2715 49.1537 95.9793 64.2001 94.7996 66.977C93.4565 67.9027 82.875 68.066 81.2597 68.0842C77.3574 68.0842 64.4891 68.0842 60.7139 66.9952C59.4071 63.8189 59.5341 49.7164 59.6249 46.0864V46.1408ZM2.74276 6.0475C4.35811 4.6318 33.38 4.90405 36.0299 6.0475C36.6254 8.07051 37.0026 10.1515 37.1552 12.2548C25.4307 11.9091 13.6975 12.5161 2.07121 14.0698C2.08936 13.4164 2.21641 6.5194 2.74276 6.0475ZM3.70471 37.5377C2.23456 34.2526 2.03491 18.9703 2.07121 14.6869C3.59581 14.5054 36.5562 12.8719 37.2278 12.8719C37.6271 16.5019 39.0428 33.4358 37.7723 36.6121C35.3402 38.3726 8.02441 38.7175 3.70471 37.5377ZM2.45236 62.0947C4.10401 60.7697 33.0533 62.2036 35.7213 63.5467C36.3149 66.255 36.6432 69.0148 36.7014 71.7868C36.8829 71.7868 11.0373 70.7704 1.39966 71.0789C1.45411 70.0081 1.88971 62.5303 2.45236 62.0947ZM36.6651 156.475C34.6686 157.781 7.89736 157.618 2.59756 155.93C1.29076 152.681 1.69006 137.78 1.87156 133.987C2.05306 133.987 26.8641 135.911 37.2459 134.695C37.4274 138.016 37.9175 153.643 36.6651 156.457V156.475ZM36.2295 125.874C36.8204 128.589 37.1546 131.354 37.2278 134.132C37.4093 134.132 11.6181 133.116 1.90786 133.406C1.98875 130.488 2.29825 127.581 2.83351 124.712C2.96056 124.349 2.83351 124.277 4.46701 124.095C10.9647 123.369 33.9063 124.694 36.2295 125.856V125.874ZM2.07121 93.5849C0.782563 90.3361 1.18186 75.5438 1.36336 71.6597C1.58116 71.6597 26.3196 73.5836 36.7377 72.3676C36.9192 75.7072 37.4274 91.2436 36.1569 94.1476C33.7067 95.7448 6.44536 94.9825 2.07121 93.5849ZM40.404 201.85C40.6218 205.226 41.3115 220.236 40.1318 223.085C38.2079 224.428 11.3277 224.701 6.04606 223.085C4.73926 219.927 4.86631 205.716 4.95706 201.922C16.6638 202.376 27.2997 201.85 40.404 201.85ZM39.188 192.521C39.8594 195.38 40.2545 198.297 40.3677 201.233C28.8243 200.071 12.5619 200.997 4.97521 201.341C4.97521 200.198 5.32006 192.085 5.91901 191.595C7.55251 190.252 36.5018 191.214 39.188 192.521ZM59.9697 98.2313C61.6395 96.8338 90.6069 97.8865 93.2387 99.157C93.929 102.136 94.3301 105.175 94.4366 108.232C86.5595 107.815 66.9575 106.562 59.0441 107.542C59.1348 106.508 59.4434 98.7214 59.9697 98.2313ZM60.1512 129.685C58.8263 126.509 58.9715 111.989 59.0804 108.196C61.6395 107.942 80.1525 109.103 88.7556 109.031C90.9518 109.031 92.9301 108.94 94.5273 108.885C94.727 112.116 95.3985 126.872 94.2369 129.667C91.8593 131.355 64.5617 131.083 60.1512 129.685ZM124.275 191.595C125.909 190.252 154.858 191.214 157.562 192.521C158.228 195.387 158.617 198.31 158.724 201.251C147.289 200.089 130.737 201.015 123.35 201.251C123.368 200.289 123.676 192.139 124.275 191.649V191.595ZM158.506 223.085C156.528 224.428 129.648 224.701 124.42 223.085C123.095 219.945 123.222 205.679 123.331 201.904C135.546 202.376 144.712 201.904 158.76 201.904C158.978 205.244 159.668 220.308 158.506 223.14V223.085Z" fill="black"/>
</svg>
