<svg width="798" height="550" viewBox="0 0 798 550" fill="none" xmlns="http://www.w3.org/2000/svg">
<path d="M478.175 43.232H335.072C335.072 43.232 349.262 4.48514 371.099 4.48514C392.936 4.48514 399.773 31.2288 399.773 31.2288C399.773 31.2288 414.502 16.7068 426.61 16.7068C438.717 16.7068 449.231 35.9067 449.231 35.9067C449.231 35.9067 466.338 25.5742 478.175 43.232Z" fill="#EBEBEB"/>
<path d="M782.889 234.936H639.786C639.786 234.936 653.976 196.189 675.812 196.189C697.649 196.189 704.487 222.932 704.487 222.932C704.487 222.932 719.216 208.398 731.324 208.398C743.431 208.398 753.945 227.597 753.945 227.597C753.945 227.597 771.052 217.265 782.889 234.936Z" fill="#EBEBEB"/>
<path opacity="0.5" d="M322.644 182.849H255.771C255.771 182.849 270.718 161.195 282.491 161.195C294.265 161.195 297.748 175.627 297.748 175.627C297.748 175.627 306.051 168.893 313.749 170.101C321.448 171.296 322.644 182.849 322.644 182.849Z" fill="#EBEBEB"/>
<path opacity="0.5" d="M550.665 322.711H483.792C483.792 322.711 498.739 301.056 510.512 301.056C522.286 301.056 525.769 315.488 525.769 315.488C525.769 315.488 534.072 308.754 541.77 309.962C549.456 311.17 550.665 322.711 550.665 322.711Z" fill="#EBEBEB"/>
<path opacity="0.5" d="M634.76 96.668H567.887C567.887 96.668 582.835 75.0134 594.608 75.0134C606.381 75.0134 609.864 89.4455 609.864 89.4455C609.864 89.4455 618.167 82.7114 625.866 83.9194C633.565 85.1146 634.76 96.668 634.76 96.668Z" fill="#EBEBEB"/>
<path d="M144.979 163.958H14.7163C14.7163 163.958 32.556 124.131 51.6424 121.651C70.7287 119.158 79.8542 151.235 79.8542 151.235C79.8542 151.235 92.1672 139.9 101.845 139.9C111.523 139.9 118.991 154.833 118.991 154.833C118.991 154.833 138.334 144.604 144.979 163.958Z" fill="#EBEBEB"/>
<path opacity="0.5" d="M206.261 112.681H118.258C118.258 112.681 133.373 83.8295 149.773 83.4054C166.173 82.9942 174.798 105.253 174.798 105.253C174.798 105.253 200.298 84.7805 206.261 112.681Z" fill="#EBEBEB"/>
<path d="M520.126 141.153C531.109 109.579 514.804 75.2166 483.709 64.4028C452.614 53.589 418.503 70.4188 407.52 101.993C396.537 133.568 412.841 167.93 443.937 178.744C475.032 189.558 509.143 172.728 520.126 141.153Z" fill="#EBEBEB"/>
<path d="M507.764 136.847C516.334 112.218 503.617 85.411 479.361 76.9729C455.104 68.5347 428.493 81.6603 419.923 106.29C411.353 130.919 424.07 157.726 448.327 166.164C472.583 174.602 499.194 161.476 507.764 136.847Z" fill="white"/>
<path d="M495.523 132.58C501.702 114.822 492.536 95.4952 475.051 89.4126C457.566 83.33 438.382 92.7949 432.203 110.553C426.025 128.311 435.19 147.638 452.675 153.72C470.161 159.803 489.344 150.338 495.523 132.58Z" fill="#EBEBEB"/>
<path d="M483.124 128.276C486.886 117.463 481.305 105.695 470.659 101.991C460.012 98.2877 448.331 104.051 444.569 114.864C440.806 125.677 446.387 137.445 457.034 141.149C467.68 144.853 479.361 139.089 483.124 128.276Z" fill="white"/>
<path d="M472.944 121.42C472.983 126.509 468.934 130.698 463.908 130.776C458.883 130.853 454.783 126.804 454.744 121.715C454.706 116.626 458.754 112.437 463.78 112.36C468.805 112.282 472.905 116.343 472.944 121.42Z" fill="#EBEBEB"/>
<path d="M376.307 75.1026L375.831 76.0137L463.364 121.77L463.84 120.859L376.307 75.1026Z" fill="#C7C7C7"/>
<path d="M372.127 77.6094L372.358 77.5195L376.368 76.2857L368.464 72.1605L364.184 73.4584L372.127 77.6094Z" fill="#C7C7C7"/>
<path d="M367.513 67.097L368.939 71.2609L376.844 75.3861C376.214 74.0753 375.764 72.6745 375.443 71.2352L367.513 67.097Z" fill="#C7C7C7"/>
<path d="M465.746 120.559L464.101 123.515L459.706 123.142L462.597 120.79L462.88 117.076L465.746 120.559Z" fill="#C7C7C7"/>
<path d="M12.7244 226.84L7.00488 239.421L10.8607 241.169C11.9918 241.683 12.7244 242.788 12.7758 244.035C12.8015 244.716 12.8786 245.41 12.9814 246.091C13.1742 247.312 12.673 248.545 11.6576 249.265L8.21304 251.733L16.2717 262.965L19.7163 260.497C20.7317 259.778 22.0555 259.7 23.148 260.279C23.7649 260.6 24.3947 260.883 25.0373 261.127C26.1941 261.577 27.0167 262.618 27.1452 263.851L27.5565 268.054L41.3347 266.692L40.9105 262.464C40.782 261.23 41.3989 260.047 42.4529 259.379C42.7356 259.199 43.0184 259.007 43.3012 258.814C43.5839 258.621 43.8538 258.415 44.1109 258.197C45.0877 257.426 46.3858 257.22 47.5169 257.734L51.3984 259.495L57.1179 246.913L53.2492 245.166C52.1182 244.652 51.3856 243.533 51.3341 242.3C51.3084 241.619 51.2442 240.937 51.1414 240.256C50.9614 239.035 51.4498 237.802 52.4652 237.082L55.9097 234.615L47.851 223.383L44.4065 225.85C43.3911 226.57 42.0801 226.647 40.9748 226.068C40.3579 225.747 39.7409 225.464 39.0983 225.22C37.9415 224.77 37.119 223.729 36.9904 222.496L36.5663 218.281L22.7881 219.643L23.1994 223.858C23.3151 225.092 22.711 226.261 21.6571 226.929C21.3743 227.109 21.0915 227.302 20.8088 227.508C20.526 227.701 20.2561 227.906 19.9991 228.125C19.0222 228.896 17.7113 229.101 16.5802 228.587L12.7244 226.84ZM25.4615 233.985C30.5512 230.348 37.6202 231.517 41.2704 236.594C44.9206 241.67 43.751 248.738 38.6613 252.388C33.5716 256.025 26.4769 254.856 22.8395 249.779C19.1893 244.69 20.3718 237.622 25.4615 233.985Z" fill="#EBEBEB"/>
<path d="M744.768 126.021L736.375 130.853L737.866 133.423C738.303 134.181 738.264 135.106 737.789 135.839C737.519 136.237 737.287 136.661 737.069 137.098C736.67 137.869 735.886 138.371 735.025 138.371H732.056V148.048H735.025C735.899 148.048 736.683 148.549 737.069 149.32C737.287 149.757 737.531 150.168 737.789 150.579C738.264 151.312 738.303 152.237 737.866 152.996L736.375 155.566L744.768 160.398L746.258 157.828C746.695 157.069 747.531 156.658 748.392 156.697C748.623 156.71 748.868 156.71 749.112 156.71C749.356 156.71 749.587 156.71 749.832 156.697C750.706 156.658 751.528 157.069 751.965 157.815L753.456 160.398L761.849 155.566L760.358 152.996C759.921 152.237 759.96 151.312 760.448 150.579C760.705 150.181 760.949 149.757 761.168 149.333C761.566 148.562 762.35 148.061 763.211 148.061H766.18V138.384H763.211C762.337 138.384 761.553 137.882 761.168 137.111C760.949 136.687 760.705 136.263 760.448 135.865C759.972 135.132 759.921 134.207 760.358 133.449L761.849 130.878L753.456 126.046L751.965 128.616C751.528 129.375 750.706 129.786 749.832 129.735C749.6 129.722 749.356 129.722 749.112 129.722C748.868 129.722 748.636 129.722 748.392 129.735C747.518 129.773 746.683 129.362 746.246 128.604L744.768 126.021ZM749.112 135.261C753.495 135.261 757.055 138.808 757.055 143.177C757.055 147.559 753.507 151.106 749.112 151.106C744.716 151.106 741.169 147.559 741.169 143.177C741.169 138.808 744.729 135.261 749.112 135.261Z" fill="#EBEBEB"/>
<path d="M47.5423 293.744L53.4289 301.429L55.781 299.63C56.475 299.103 57.4004 299.026 58.1844 299.398C58.6214 299.604 59.0713 299.797 59.5211 299.951C60.3437 300.247 60.9349 300.953 61.0506 301.814L61.4362 304.757L71.0501 303.511L70.6645 300.568C70.5488 299.707 70.9473 298.871 71.667 298.37C72.0654 298.1 72.451 297.805 72.8238 297.496C73.4921 296.931 74.4047 296.764 75.2144 297.098L77.952 298.242L81.6793 289.31L78.9288 288.166C78.1191 287.832 77.605 287.061 77.5279 286.2C77.515 285.969 77.4893 285.724 77.4508 285.493C77.4251 285.262 77.3865 285.018 77.3351 284.786C77.1809 283.938 77.4765 283.064 78.1705 282.537L80.5483 280.725L74.6617 273.04L72.2968 274.839C71.6027 275.366 70.6774 275.443 69.8933 275.071C69.4563 274.865 69.0193 274.672 68.5566 274.518C67.7341 274.223 67.1428 273.516 67.0272 272.655L66.6416 269.712L57.0277 270.958L57.4133 273.901C57.5289 274.762 57.1305 275.598 56.4108 276.086C56.0123 276.356 55.6267 276.651 55.2669 276.96C54.5985 277.525 53.686 277.692 52.8762 277.358L50.1257 276.214L46.3984 285.146L49.1489 286.29C49.9587 286.624 50.4728 287.395 50.537 288.256C50.5499 288.488 50.5756 288.732 50.6142 288.976C50.6399 289.207 50.6784 289.451 50.7298 289.683C50.8841 290.544 50.5756 291.418 49.8815 291.945L47.5423 293.744ZM56.1794 288.256C55.6139 283.912 58.6728 279.941 63.0299 279.376C67.3742 278.81 71.3714 281.869 71.9369 286.213C72.5024 290.557 69.4306 294.541 65.0864 295.106C60.7293 295.659 56.7449 292.6 56.1794 288.256Z" fill="#DBDBDB"/>
<path d="M513.245 296.797L301.771 354.013L310.738 387.148L522.212 329.932L513.245 296.797Z" fill="#4372B5"/>
<path d="M295.388 355.736L274.098 361.496L283.065 394.631L304.355 388.871L295.388 355.736Z" fill="#4372B5"/>
<path d="M267.711 363.225L254.585 366.777L263.552 399.912L276.678 396.36L267.711 363.225Z" fill="#4372B5"/>
<path d="M248.188 368.506L241.675 370.269L250.642 403.404L257.155 401.641L248.188 368.506Z" fill="#4372B5"/>
<path d="M525.191 340.973L510.256 285.75L555.935 303.022L525.191 340.973Z" fill="#4372B5"/>
<path d="M797.605 549.357L784.238 507.899L749.472 475.424L732.043 429.416H644.053L620.905 438.553L538.622 442.241L494.742 466.312L390.185 469.589C390.185 469.589 360.559 486.604 358.413 487.851C356.266 489.097 304.971 498.222 304.971 498.222L259.408 501.679H182.098L108.747 533.332L19.459 549.486H797.605" fill="#FFC727"/>
<path d="M797.605 549.357L784.238 507.899L749.472 475.424L732.043 429.416H644.053L620.905 438.553L538.622 442.241L494.742 466.312L390.185 469.589C390.185 469.589 360.559 486.604 358.413 487.851C356.266 489.097 304.971 498.222 304.971 498.222L259.408 501.679H182.098L108.747 533.332L19.459 549.486H797.605" fill="#2A5C8A"/>
<path opacity="0.1" d="M494.729 466.312L530.961 480.166L584.121 487.851L549.315 462.919L538.609 442.241L494.729 466.312Z" fill="black"/>
<path opacity="0.1" d="M285.422 499.083L311.667 518.321L397.267 518.938L436.956 525.467L404.413 504.648L368.078 503.748L358.4 487.851L285.422 499.083Z" fill="black"/>
<path opacity="0.1" d="M108.747 533.332L149.529 526.135L178.589 530.98L220.194 520.082L182.098 501.666L108.747 533.332Z" fill="black"/>
<path d="M0 549.357L99.6991 549.049L199.398 548.933L398.796 548.715L598.194 548.933L697.893 549.049L797.605 549.357L697.893 549.679L598.194 549.782L398.796 550L199.398 549.782L99.6991 549.679L0 549.357Z" fill="#263238"/>
<path d="M156.676 188.722C160.493 218.165 168.95 247.363 177.163 251.244C188.216 256.462 217.071 255.639 232.019 253.827C236.414 253.3 231.569 219.206 226.877 219.771C221.209 220.452 191.905 224.449 191.339 224.346C190.131 224.128 172.292 195.007 168.192 187.938C161.367 176.154 154.979 175.653 156.676 188.722Z" fill="#FFEEEE"/>
<path d="M225.952 252.645C229.859 253.429 244.781 255.061 255.115 253.082C260.128 252.118 274.227 247.839 273.777 243.932C273.34 240.025 269.099 240.912 269.099 240.912C269.099 240.912 274.78 238.213 273.983 234.319C273.173 230.425 266.644 232.032 266.644 232.032C266.644 232.032 272.286 228.832 271.207 225.015C270.127 221.198 263.816 223.897 263.816 223.897C263.816 223.897 269.112 221.211 266.888 218.435C264.228 215.093 255.038 221.146 249.434 221.93C248.162 222.11 223.42 223.704 223.42 223.704L225.952 252.645Z" fill="#FFEEEE"/>
<path d="M263.713 223.871C256.94 228.305 253.213 229.076 245.244 229.204C245.09 229.204 245.051 229.436 245.218 229.448C253.033 230.027 257.853 229.731 263.945 224.179C264.24 223.922 264.035 223.665 263.713 223.871Z" fill="#263238"/>
<path d="M266.978 231.954C259.536 235.951 255.5 236.812 247.172 237.57C247.056 237.583 247.056 237.776 247.184 237.776C255.423 237.725 260.217 237.326 267.132 232.353C267.428 232.134 267.312 231.762 266.978 231.954Z" fill="#263238"/>
<path d="M268.482 241.22C261.002 244.562 256.619 245.705 248.432 245.41C248.239 245.397 248.213 245.68 248.406 245.705C256.722 246.836 262.21 245.448 268.559 241.464C268.996 241.182 268.945 241.002 268.482 241.22Z" fill="#263238"/>
<path d="M222.816 222.74C222.816 222.74 230.489 216.109 234.499 213.937C238.509 211.765 256.452 209.182 257.223 213.024C258.225 217.985 248.174 221.519 243.021 222.599C243.021 222.599 245.36 234.075 238.689 238.162C232.006 242.261 222.816 222.74 222.816 222.74Z" fill="#FFEEEE"/>
<path d="M257.056 214.477C254.704 219.656 247.853 220.645 242.93 222.072C242.558 222.175 242.506 222.521 242.648 222.791C243.303 227.662 242.815 234.73 238.985 238.239C238.869 238.342 238.997 238.509 239.126 238.431C243.74 235.219 244.794 228.317 243.727 223.036C248.791 221.648 255.629 220.362 257.094 214.502C257.107 214.464 257.068 214.438 257.056 214.477Z" fill="#263238"/>
<path d="M225.798 218.589L224.32 256.745C224.32 256.745 183.769 258.595 174.965 250.075C169.066 244.369 158.565 214.412 156.418 193.863C154.272 173.314 160.814 173.686 171.52 191.742C182.227 209.811 191.147 223.113 191.725 223.125C192.291 223.138 225.798 218.589 225.798 218.589Z" fill="#3B82F6"/>
<path d="M218.665 222.084C218.665 221.969 218.485 221.956 218.472 222.084C217.161 232.648 216.557 243.341 216.351 253.969C216.351 254.084 216.531 254.097 216.544 253.982C217.752 243.405 218.575 232.725 218.665 222.084Z" fill="#263238"/>
<path opacity="0.1" d="M192.663 255.729C184.951 254.753 178.024 253.043 174.965 250.075C169.065 244.369 158.552 214.412 156.418 193.85C155.66 186.499 155.994 181.834 157.254 179.688L192.663 255.729Z" fill="black"/>
<path d="M236.607 501.46C233.985 502.27 159.632 500.458 156.856 498.582C155.789 497.888 164.876 431.96 164.876 431.96L212.714 433.22L203.293 474.961C203.293 474.961 231.44 488.391 234.294 490.768C237.108 493.146 239.216 500.664 236.607 501.46Z" fill="#FFEEEE"/>
<path d="M236.607 501.46C233.985 502.283 159.632 500.471 156.843 498.594C156.329 498.26 158.218 482.402 160.287 466.248L205.092 466.993L203.28 474.974C203.28 474.974 231.427 488.39 234.281 490.768C237.108 493.146 239.216 500.664 236.607 501.46Z" fill="#EBEBEB"/>
<path d="M237.687 501.794C235.026 502.643 159.272 501.345 156.419 499.468C155.326 498.774 158.861 473.779 158.861 473.637L203.588 474.228L203.55 475.064C203.55 475.064 232.327 488.532 235.245 490.922C238.149 493.313 240.36 500.959 237.687 501.794Z" fill="#3B82F6"/>
<path d="M236.89 498.838C224.127 498.312 172.587 497.373 159.927 497.81C159.824 497.81 159.824 497.887 159.927 497.887C172.574 498.684 224.114 499.211 236.89 499.044C237.147 499.044 237.16 498.851 236.89 498.838Z" fill="#263238"/>
<path d="M209.025 474.46C204.012 473.432 197.856 474.1 193.949 477.621C193.794 477.762 193.987 477.968 194.154 477.917C199.141 476.439 203.781 475.513 208.986 475.089C209.359 475.064 209.385 474.524 209.025 474.46Z" fill="#263238"/>
<path d="M212.611 476.709C207.598 475.68 201.442 476.349 197.535 479.87C197.38 480.011 197.573 480.217 197.74 480.166C202.727 478.688 207.367 477.762 212.572 477.338C212.958 477.313 212.971 476.773 212.611 476.709Z" fill="#263238"/>
<path d="M216.209 478.958C211.197 477.929 205.04 478.598 201.133 482.119C200.979 482.26 201.172 482.466 201.339 482.415C206.326 480.937 210.966 480.011 216.171 479.587C216.544 479.562 216.569 479.022 216.209 478.958Z" fill="#263238"/>
<path d="M207.611 472.583L157.434 472.313C157.434 472.313 172.202 368.397 170.916 364.118C170.415 362.447 116.074 309.705 116.074 309.705C94.4166 288.359 100.907 253.917 100.907 253.917H163.385C163.385 253.917 160.531 269.133 163.77 272.462C167.703 276.484 214.834 327.337 220.978 343.543C229.178 365.171 207.611 472.583 207.611 472.583Z" fill="#37474F"/>
<path d="M206.956 462.636C199.244 462.135 201.468 462.148 193.743 461.75C189.964 461.557 165.133 460.323 161.572 460.914C161.495 460.927 161.483 461.094 161.56 461.107C165.068 461.968 189.913 462.662 193.692 462.765C201.416 462.97 199.205 462.803 206.93 462.906C207.097 462.919 207.097 462.649 206.956 462.636Z" fill="#263238"/>
<path d="M166.444 275.263L142.769 335.742C129.299 322.531 116.074 309.692 116.074 309.692C94.4166 288.346 100.92 253.892 100.92 253.892H163.397C163.397 253.892 160.544 269.12 163.783 272.436C164.194 272.886 165.12 273.85 166.444 275.263Z" fill="#263238"/>
<path d="M124.505 546.903C121.78 547.211 49.0334 531.713 46.6428 529.361C45.7174 528.487 47.3626 517.756 49.7146 504.84C49.7403 504.712 49.766 504.57 49.7917 504.442C50.2673 501.782 63.0815 462.405 63.0815 462.405L110.495 468.432L96.8329 513.913L96.6401 514.71C96.6401 514.71 121.832 533.101 124.184 535.954C126.536 538.807 127.23 546.594 124.505 546.903Z" fill="#FFEEEE"/>
<path d="M124.492 546.89C121.78 547.211 49.0333 531.713 46.6427 529.361C45.7173 528.487 47.3625 517.756 49.7274 504.84C49.7531 504.712 49.7659 504.57 49.8045 504.442C49.933 503.748 50.9098 500.137 52.2851 495.215L99.3777 505.483L96.8586 513.913L96.6658 514.71C96.6658 514.71 121.87 533.1 124.222 535.953C126.536 538.806 127.217 546.594 124.492 546.89Z" fill="#EBEBEB"/>
<path d="M125.186 547.185C122.41 547.494 48.3391 531.533 45.91 529.129C44.9717 528.23 46.6683 517.306 49.0975 504.159C49.1232 504.018 49.1489 503.889 49.1746 503.748L97.0769 513.515L96.8841 514.325C96.8841 514.325 122.5 533.113 124.903 536.043C127.281 538.948 127.962 546.877 125.186 547.185Z" fill="#3B82F6"/>
<path d="M124.967 544.127C112.552 541.133 62.1687 530.209 49.6629 528.191C49.5601 528.178 49.5473 528.243 49.6501 528.268C61.8988 531.507 112.359 542.019 124.916 544.333C125.186 544.384 125.237 544.191 124.967 544.127Z" fill="#263238"/>
<path d="M102.372 514.8C97.6553 512.821 91.486 512.281 86.9747 514.967C86.7947 515.07 86.949 515.314 87.116 515.301C92.2957 514.813 97.0255 514.813 102.218 515.404C102.591 515.468 102.719 514.941 102.372 514.8Z" fill="#263238"/>
<path d="M105.457 517.704C100.74 515.725 94.5705 515.186 90.0591 517.872C89.8792 517.974 90.0334 518.219 90.2005 518.206C95.3802 517.717 100.11 517.717 105.303 518.308C105.675 518.36 105.804 517.846 105.457 517.704Z" fill="#263238"/>
<path d="M108.542 520.609C103.825 518.63 97.6554 518.09 93.1441 520.776C92.9642 520.879 93.1184 521.123 93.2855 521.11C98.4651 520.621 103.195 520.621 108.388 521.213C108.76 521.264 108.889 520.75 108.542 520.609Z" fill="#263238"/>
<path d="M151.431 253.904C151.431 253.904 155.492 288.667 148.321 296.597C148.321 296.597 135.609 376.661 131.059 399.729C125.057 430.174 100.92 513.142 100.92 513.142L47.8247 504.172C47.8247 504.172 79.1341 395.115 79.3911 393.136C80.8307 381.878 93.542 303.742 92.8866 301.802C86.2288 281.946 95.8298 253.917 95.8298 253.917H151.431V253.904Z" fill="#37474F"/>
<path d="M163.384 253.904C163.384 253.904 158.32 290.647 148.308 296.597C148.308 296.597 135.597 376.661 131.047 399.729C125.044 430.174 100.907 513.142 100.907 513.142L47.812 504.172C47.812 504.172 79.1214 395.115 79.3785 393.136C80.818 381.878 93.5294 303.742 92.8739 301.802C86.2161 281.946 95.8172 253.917 95.8172 253.917H163.384V253.904Z" fill="#37474F"/>
<path d="M100.688 502.206C92.8353 500.445 95.1231 500.818 87.2443 499.173C83.3885 498.363 58.0685 493.081 54.3155 493.068C54.2383 493.068 54.1998 493.223 54.2769 493.261C57.7472 494.688 83.17 499.443 87.0387 500.162C94.9431 501.64 92.6939 501.113 100.624 502.476C100.778 502.501 100.83 502.244 100.688 502.206Z" fill="#263238"/>
<path d="M155.544 292.6C149.94 294.528 144.542 297.265 139.375 300.131C139.17 300.246 139.311 300.555 139.53 300.465C144.979 298.126 150.532 295.89 155.84 293.255C156.251 293.037 155.968 292.446 155.544 292.6Z" fill="#263238"/>
<path d="M157.279 255.215C157.266 255.022 156.932 254.984 156.932 255.19C156.971 261.654 156.559 267.347 156.02 273.387C155.763 276.189 153.513 291.7 148.642 290.569C147.832 290.377 147.408 289.58 147.28 288.346C147.125 286.868 147.678 285.056 147.922 283.591C148.462 280.34 148.899 277.088 149.169 273.811C149.683 267.694 149.722 261.564 148.976 255.472C148.951 255.267 148.668 255.292 148.668 255.485C148.681 263.954 148.449 272.41 147.19 280.802C146.586 284.838 144.555 290.904 148.771 291.533C153.063 292.163 155.853 281.998 156.367 279.209C157.832 271.459 157.883 263.08 157.279 255.215Z" fill="#263238"/>
<path d="M148.771 290.993C148.334 292.034 147.974 293.114 147.679 294.206C147.447 295.055 147.126 295.967 147.229 296.854C147.242 297.021 147.473 297.046 147.563 296.931C148.128 296.211 148.373 295.222 148.694 294.361C149.067 293.371 149.452 292.381 149.799 291.379C150.018 290.698 149.041 290.351 148.771 290.993Z" fill="#263238"/>
<path d="M99.2104 275.328C100.393 275.122 102.128 275.546 107.243 275.186C108.657 275.084 110.071 274.814 111.446 274.505C112.834 274.197 114.235 273.837 115.353 272.924C117.243 271.382 118.67 268.915 119.813 266.794C121.073 264.468 122.333 261.808 122.937 259.225C122.975 259.071 123.207 259.148 123.181 259.302C122.911 260.806 122.757 262.296 122.371 263.774C121.998 265.162 121.459 266.525 120.88 267.835C119.788 270.29 118.502 272.924 116.305 274.595C113.991 276.33 110.765 276.664 107.963 276.857C106.344 276.973 99.9944 276.806 99.1333 275.893C98.9662 275.713 98.979 275.366 99.2104 275.328Z" fill="#263238"/>
<path d="M164.978 268.208C163.565 269.21 95.0978 254.123 94.8279 253.583C94.0695 252.105 128.181 183.389 147.717 173.75C151.92 171.681 162.459 175.999 164.619 179.032C165.968 180.934 167.549 191.858 168.449 200.764C170.235 218.589 166.212 267.334 164.978 268.208Z" fill="#3B82F6"/>
<path d="M162.009 186.589C161.791 193.387 161.457 200.173 161.084 206.958C160.724 213.744 160.248 220.517 159.837 227.302C159.323 234.075 158.873 240.86 158.321 247.62L157.459 257.773C157.125 261.153 156.842 264.545 156.47 267.912C156.56 264.52 156.74 261.127 156.868 257.721L157.395 247.543C157.755 240.757 158.231 233.985 158.642 227.199C159.156 220.427 159.606 213.641 160.171 206.881C160.724 200.109 161.302 193.349 162.009 186.589Z" fill="#263238"/>
<path d="M165.621 207.729C165.582 208.436 164.991 208.976 164.284 208.937C163.577 208.899 163.038 208.308 163.076 207.601C163.115 206.894 163.706 206.354 164.413 206.393C165.107 206.419 165.647 207.023 165.621 207.729Z" fill="#263238"/>
<path d="M164.464 220.799C164.426 221.506 163.834 222.046 163.128 222.007C162.421 221.969 161.881 221.378 161.919 220.671C161.958 219.964 162.549 219.424 163.256 219.463C163.95 219.501 164.49 220.092 164.464 220.799Z" fill="#263238"/>
<path d="M163.308 233.869C163.269 234.576 162.678 235.116 161.971 235.077C161.264 235.039 160.724 234.447 160.763 233.741C160.801 233.034 161.392 232.494 162.099 232.533C162.806 232.571 163.346 233.175 163.308 233.869Z" fill="#263238"/>
<path d="M162.151 246.952C162.112 247.659 161.521 248.198 160.814 248.16C160.107 248.121 159.567 247.53 159.606 246.823C159.645 246.116 160.236 245.577 160.943 245.615C161.65 245.641 162.189 246.245 162.151 246.952Z" fill="#263238"/>
<path d="M161.007 260.022C160.968 260.729 160.377 261.268 159.67 261.23C158.963 261.191 158.423 260.6 158.462 259.893C158.5 259.186 159.092 258.647 159.799 258.685C160.493 258.724 161.032 259.315 161.007 260.022Z" fill="#263238"/>
<path d="M133.374 180.677C107.411 192.526 86.7694 211.945 86.8336 220.465C86.9236 232.687 97.7714 262.772 105.252 275.829C107.45 279.671 136.972 261.962 134.633 257.863C131.806 252.902 117.256 223.639 117.141 223.087C116.883 221.892 137.204 197.436 142.55 191.473C152.319 180.51 147.486 174.239 133.374 180.677Z" fill="#FFEEEE"/>
<path d="M154.452 298.203C152.061 300.979 148.578 299.475 148.578 299.475C148.578 299.475 148.206 302.38 146.021 304.128C143.501 306.132 139.26 303.074 139.26 303.074C139.26 303.074 138.283 305.94 135.777 307.546C133.181 309.23 128.451 306.749 128.451 306.749C128.451 306.749 126.073 308.908 122.898 308.754C117.475 308.484 113.439 301.249 110.817 296.674C108.195 292.099 105.059 276.677 104.172 273.798L133.373 256.757C133.373 256.757 150.943 273.927 153.244 279.736C155.185 284.645 157.151 295.093 154.452 298.203Z" fill="#FFEEEE"/>
<path d="M148.925 299C148.103 293.294 145.635 288.14 143.476 282.871C143.424 282.756 143.244 282.833 143.296 282.949C145.506 288.179 146.663 293.769 148.668 299.077C148.72 299.218 148.951 299.154 148.925 299Z" fill="#263238"/>
<path d="M139.569 302.753C139.35 301.467 138.695 300.259 138.142 299.09C137.551 297.83 136.934 296.584 136.304 295.337C135.032 292.857 133.708 290.402 132.32 287.986C132.255 287.884 132.075 287.948 132.14 288.063C133.399 290.544 134.62 293.037 135.777 295.556C136.355 296.815 136.921 298.088 137.474 299.36C137.988 300.542 138.437 301.84 139.222 302.881C139.337 303.048 139.607 302.945 139.569 302.753Z" fill="#263238"/>
<path d="M128.374 306.634C128.219 305.516 127.448 304.398 126.921 303.408C126.317 302.29 125.726 301.172 125.135 300.041C123.952 297.792 122.783 295.543 121.677 293.243C121.626 293.127 121.446 293.204 121.497 293.32C122.603 295.659 123.67 297.998 124.801 300.324C125.353 301.467 125.906 302.598 126.471 303.742C126.947 304.706 127.448 305.965 128.258 306.698C128.309 306.736 128.387 306.698 128.374 306.634Z" fill="#263238"/>
<path d="M134.312 256.616L97.4755 267.938C97.4755 267.938 82.2706 224.321 85.9208 216.97C89.571 209.631 111.228 189.545 130.224 181.41C149.221 173.262 153.925 179.688 139.851 195.264C125.777 210.84 117.616 222.534 117.77 223.087C117.924 223.639 134.312 256.616 134.312 256.616Z" fill="#3B82F6"/>
<path d="M128.091 250.242C128.194 250.203 128.142 250.023 128.027 250.049C118.091 252.324 108.285 255.318 98.6452 258.66C98.5424 258.698 98.5938 258.878 98.7095 258.852C108.632 256.475 118.503 253.699 128.091 250.242Z" fill="#263238"/>
<path d="M134.44 256.025C131.908 250.332 121.369 229.538 118.58 223.961C118.451 223.717 118.297 223.46 118.246 223.19C118.156 222.65 118.464 222.252 118.773 221.827C119.223 221.211 119.672 220.594 120.135 219.977C121.073 218.705 122.037 217.432 122.988 216.173C124.878 213.693 126.806 211.251 128.734 208.809C128.836 208.681 128.939 208.552 129.029 208.423C130.559 207.113 132.114 205.828 133.541 204.414C133.618 204.337 133.502 204.221 133.425 204.285C132.204 205.236 131.06 206.264 129.916 207.305C131.741 204.992 133.553 202.666 135.391 200.353C135.417 200.314 135.366 200.263 135.327 200.301C130.764 205.224 126.536 210.403 122.474 215.736C121.472 217.047 120.495 218.358 119.505 219.681C119.017 220.337 118.516 220.992 118.04 221.673C117.783 222.033 117.539 222.38 117.5 222.83C117.449 223.382 117.732 223.884 117.963 224.359C118.349 225.143 118.721 225.927 119.12 226.711C119.852 228.176 120.585 229.628 121.305 231.093C122.963 234.396 132.448 252.876 134.235 256.115C134.299 256.231 134.492 256.128 134.44 256.025Z" fill="#263238"/>
<path d="M158.565 187.913C154.285 187.758 149.093 179.714 147.743 173.995C147.653 173.596 149.17 170.152 150.802 165.873C151.792 163.277 152.82 160.359 153.578 157.622L169.567 166.502C169.567 166.502 166.302 171.759 165.017 176.526C164.914 176.925 164.85 177.31 164.824 177.683C164.812 177.734 164.812 177.799 164.799 177.876C164.555 180.112 162.704 188.067 158.565 187.913Z" fill="#FFEEEE"/>
<path d="M154.337 158.059C153.925 161.619 153.154 174.547 163.012 177.503C163.642 177.683 164.233 177.824 164.799 177.901C164.824 177.824 164.824 177.76 164.824 177.709C164.85 177.336 164.914 176.95 165.017 176.565C166.303 171.797 169.567 166.541 169.567 166.541L154.337 158.059Z" fill="#263238"/>
<path d="M149.311 143.087C148.386 149.616 154.503 167.068 159.567 170.383C166.906 175.19 177.497 174.085 181.224 165.59C184.836 157.365 176.456 134.747 170.942 131.881C162.806 127.665 150.673 133.449 149.311 143.087Z" fill="#FFEEEE"/>
<path d="M168.5 151.312C168.474 151.273 168.423 151.402 168.449 151.453C168.898 152.623 169.207 154.024 168.269 154.782C168.243 154.808 168.269 154.859 168.307 154.846C169.541 154.204 169.117 152.34 168.5 151.312Z" fill="#263238"/>
<path d="M167.035 150.438C165.094 150.952 166.251 154.795 168.05 154.332C169.824 153.869 168.654 150.014 167.035 150.438Z" fill="#263238"/>
<path d="M175.119 149.346C175.119 149.294 175.235 149.371 175.248 149.423C175.569 150.631 176.147 151.955 177.343 152.019C177.381 152.019 177.394 152.083 177.356 152.083C175.98 152.302 175.235 150.541 175.119 149.346Z" fill="#263238"/>
<path d="M175.813 147.778C177.69 147.058 179.001 150.862 177.266 151.53C175.556 152.186 174.245 148.382 175.813 147.778Z" fill="#263238"/>
<path d="M164.978 149.14C165.467 148.845 165.865 148.498 166.315 148.163C166.816 147.778 167.266 147.534 167.485 146.904C167.6 146.57 167.369 146.107 167.061 145.953C166.328 145.619 165.595 145.927 164.966 146.364C164.284 146.827 163.873 147.367 163.642 148.163C163.41 148.934 164.336 149.526 164.978 149.14Z" fill="#263238"/>
<path d="M176.713 145.388C176.148 145.465 175.621 145.439 175.068 145.452C174.438 145.465 173.937 145.555 173.371 145.195C173.076 145.002 172.96 144.501 173.114 144.192C173.474 143.473 174.245 143.254 175.016 143.203C175.839 143.151 176.495 143.318 177.176 143.794C177.818 144.257 177.458 145.285 176.713 145.388Z" fill="#263238"/>
<path d="M170.402 162.827C170.775 163.02 171.173 163.315 171.623 163.225C172.047 163.135 172.484 162.801 172.819 162.544C172.857 162.518 172.909 162.544 172.883 162.596C172.716 163.148 172.15 163.636 171.559 163.701C170.993 163.765 170.582 163.379 170.299 162.93C170.261 162.853 170.338 162.801 170.402 162.827Z" fill="#263238"/>
<path d="M170.569 158.881C171.546 159.717 172.703 159.987 173.821 159.871C174.322 159.82 174.823 159.691 175.299 159.498C175.389 159.473 175.492 159.434 175.569 159.383C175.659 159.344 175.723 159.318 175.813 159.267C175.942 159.203 175.993 159.061 175.967 158.933V158.92C175.955 158.881 175.942 158.843 175.916 158.804C175.916 158.804 175.916 158.804 175.916 158.792L175.877 158.689C175.62 157.763 175.119 156.388 175.119 156.388C175.505 156.453 177.445 156.71 177.278 156.234C175.839 152.327 174.245 147.996 171.996 144.411C171.932 144.295 171.739 144.385 171.79 144.501C173.024 148.305 174.913 151.865 176.212 155.669C175.608 155.63 174.592 155.514 174.117 155.669C174.001 155.746 175.145 158.303 175.235 158.727C175.235 158.727 175.235 158.74 175.235 158.779C173.757 159.447 172.446 159.331 170.633 158.74C170.543 158.702 170.479 158.804 170.569 158.881Z" fill="#263238"/>
<path d="M174.567 159.447C174.567 159.447 173.976 160.732 172.922 161.375C172.536 161.606 172.099 161.76 171.598 161.734C170.582 161.683 170.377 160.796 170.39 160C170.403 159.344 170.582 158.753 170.582 158.753C170.582 158.753 172.266 159.768 174.567 159.447Z" fill="#263238"/>
<path d="M172.922 161.362C172.536 161.593 172.099 161.747 171.598 161.722C170.582 161.67 170.377 160.783 170.39 159.987C171.456 159.884 172.626 160.385 172.922 161.362Z" fill="#F291B8"/>
<path d="M156.868 151.633C157.601 147.996 154.863 142.432 156.406 140.645C159.735 136.777 168.269 142.277 173.564 141.635C178.692 141.005 179.991 137.497 178.525 133.449C177.073 129.413 173.179 127.061 167.318 126.946C161.251 126.817 156.136 129.914 153.424 132.176C153.424 132.176 154.452 129.94 153.887 129.349C153.321 128.771 151.059 131.084 150.403 132.035C149.735 132.999 149.465 134.669 149.465 134.669C149.465 134.669 148.488 134.515 147.087 134.721C145.789 134.926 144.273 136.147 144.221 136.469C144.17 136.79 146.059 136.79 147.383 136.687C147.383 136.687 145.365 140.234 145.764 142.997C146.175 145.76 152.164 158.367 153.218 158.38C154.581 158.393 156.573 153.098 156.868 151.633Z" fill="#263238"/>
<path d="M147.846 136.289C147.884 136.25 147.961 136.314 147.923 136.353C146.817 137.587 145.969 138.975 145.648 140.633C145.288 142.56 145.661 144.526 146.316 146.351C147.589 149.885 149.799 152.957 151.766 156.118C151.817 156.208 151.663 156.311 151.599 156.221C149.285 153.008 146.907 149.5 145.712 145.696C144.71 142.457 144.992 138.538 147.846 136.289Z" fill="#263238"/>
<path d="M156.033 139.322C157.511 138.923 159.208 138.846 160.724 139.026C162.215 139.206 163.578 139.951 164.966 140.491C168.076 141.699 171.431 142.522 174.772 141.879C174.811 141.866 174.824 141.93 174.785 141.943C171.752 142.727 168.629 142.188 165.724 141.185C164.259 140.671 162.832 139.861 161.316 139.527C159.593 139.155 157.82 139.399 156.084 139.592C155.892 139.617 155.853 139.36 156.033 139.322Z" fill="#263238"/>
<path d="M156.393 130.313C158.321 129.002 160.48 128.012 162.691 127.293C164.812 126.599 167.048 126.136 169.297 126.213C173.179 126.342 176.97 128.321 178.358 132.099C179.065 134.014 179.13 136.212 178.346 138.114C178.294 138.242 178.101 138.178 178.14 138.037C179.258 134.425 178.127 130.364 174.901 128.218C171.444 125.918 167.048 126.265 163.231 127.383C160.84 128.09 158.591 129.143 156.406 130.326C156.393 130.351 156.38 130.326 156.393 130.313Z" fill="#263238"/>
<path d="M167.87 158.612C165.569 159.049 163.166 157.892 162.125 155.681C160.904 153.06 162.035 149.924 164.657 148.703C167.279 147.482 170.415 148.613 171.636 151.235C172.857 153.857 171.726 156.992 169.104 158.213C168.706 158.393 168.294 158.522 167.87 158.612ZM166.032 148.973C165.672 149.037 165.312 149.153 164.953 149.32C162.678 150.387 161.701 153.098 162.755 155.373C163.822 157.648 166.533 158.637 168.808 157.571C171.083 156.504 172.06 153.792 171.006 151.518C170.107 149.603 168.024 148.6 166.032 148.973Z" fill="#37474F"/>
<path d="M179.348 154.923C177.368 155.296 175.196 153.612 174.374 151.004C173.962 149.68 173.937 148.318 174.335 147.174C174.734 145.979 175.518 145.143 176.533 144.822C177.548 144.501 178.667 144.732 179.682 145.49C180.659 146.21 181.43 147.341 181.841 148.665C182.715 151.428 181.751 154.204 179.695 154.846C179.566 154.885 179.463 154.91 179.348 154.923ZM176.996 145.426C176.906 145.439 176.829 145.465 176.739 145.49C175.942 145.735 175.325 146.416 174.991 147.392C174.656 148.408 174.669 149.616 175.042 150.798C175.8 153.188 177.78 154.705 179.463 154.178C181.147 153.651 181.905 151.273 181.16 148.87C180.787 147.688 180.106 146.698 179.245 146.056C178.512 145.516 177.728 145.298 176.996 145.426Z" fill="#37474F"/>
<path d="M171.662 151.852L171.07 151.479C171.623 150.605 173.114 149.192 174.746 150.117L174.399 150.734C172.934 149.898 171.713 151.775 171.662 151.852Z" fill="#37474F"/>
<path d="M149.748 160.167L149.054 160.051C149.105 159.73 149.645 156.877 151.059 156.17C152.383 155.502 161.624 153.522 162.022 153.432L162.164 154.114C159.516 154.679 152.395 156.273 151.367 156.787C150.442 157.262 149.876 159.396 149.748 160.167Z" fill="#37474F"/>
<path d="M156.521 156.35C156.521 156.35 151.432 151.273 149.067 153.188C146.689 155.103 151.239 162.955 154.529 163.559C157.819 164.163 158.436 161.118 158.436 161.118L156.521 156.35Z" fill="#FFEEEE"/>
<path d="M150.429 155.412C150.378 155.412 150.378 155.489 150.429 155.502C152.756 155.99 154.246 157.802 155.416 159.73C154.632 159.049 153.681 158.766 152.743 159.717C152.691 159.768 152.768 159.845 152.82 159.82C153.668 159.473 154.336 159.511 155.069 160.115C155.583 160.539 155.982 161.13 156.393 161.657C156.534 161.837 156.856 161.67 156.753 161.452C156.74 161.439 156.74 161.426 156.727 161.4C156.277 158.65 153.437 155.167 150.429 155.412Z" fill="#263238"/>
<path d="M164.799 177.889L161.47 186.101L148.154 172.298L144.26 176.295C144.26 176.295 155.634 197.834 155.776 196.896L161.765 188.17L166.354 194.775L166.842 181.577L164.799 177.889Z" fill="#3B82F6"/>
<path d="M166.996 187.077C166.97 184.494 167.125 184.314 166.983 181.731C166.983 181.641 166.842 181.59 166.803 181.693C166.148 184.147 166.186 191.601 166.032 193.953C166.019 193.94 166.019 193.927 166.007 193.927C165.762 193.644 161.816 188.093 161.765 188.17C160.763 189.532 156.046 195.893 155.801 196.472C154.002 193.053 147.074 180.587 144.889 177.323C144.825 177.233 144.684 177.297 144.735 177.4C146.29 180.999 155.454 197.757 155.609 197.731C155.711 197.821 161.277 189.995 161.829 188.504C162.69 189.686 166.649 195.919 166.688 195.534C166.945 192.976 167.022 189.66 166.996 187.077Z" fill="#263238"/>
<path d="M354.788 513.81C351.948 514.145 276.206 497.99 273.713 495.549C272.749 494.636 274.458 483.468 276.913 470.026C276.939 469.885 276.964 469.743 276.99 469.602C277.491 466.826 290.833 420.484 290.833 420.484L340.2 432.114L325.972 479.484L325.779 480.307C325.779 480.307 352.012 499.455 354.467 502.437C356.909 505.393 357.616 513.502 354.788 513.81Z" fill="#FFE2E1"/>
<path d="M275.718 476.709C273.944 487.003 272.903 494.79 273.713 495.549C276.206 498.003 351.948 514.145 354.788 513.81C357.629 513.489 356.909 505.393 354.467 502.424C352.976 500.612 342.655 492.799 334.802 486.951C340.059 491.205 347.616 501.383 315.202 490.961C295.203 484.548 282.697 479.664 275.718 476.709Z" fill="#263238"/>
<path d="M377.306 214.451C377.306 214.451 381.535 250.653 374.068 258.904C374.068 258.904 362.577 340.934 357.847 364.953C351.601 396.658 332.502 466.312 332.502 466.312L278.494 453.242C278.494 453.242 306.462 361.483 306.732 359.414C308.235 347.694 317.078 266.319 316.358 264.301C307.169 238.354 319.417 214.438 319.417 214.438H377.306V214.451Z" fill="#263238"/>
<path d="M331.486 451.79C323.967 449.708 326.165 450.171 318.608 448.204C314.906 447.241 290.614 440.943 286.964 440.841C286.887 440.841 286.836 441.008 286.913 441.046C290.19 442.653 314.623 448.397 318.338 449.258C325.934 451.032 323.787 450.415 331.409 452.085C331.55 452.111 331.628 451.828 331.486 451.79Z" fill="#37474F"/>
<path d="M325.702 442.845L332.308 415.228L339.018 387.636L342.321 373.834L343.118 370.376C343.336 369.233 343.516 368.063 343.696 366.894L344.699 359.877L348.464 331.732L355.97 275.443L357.86 261.371L358.837 254.341L359.094 252.581C359.119 252.337 359.222 251.887 359.261 251.707C359.299 251.437 359.312 251.141 359.325 250.846C359.376 249.676 359.402 248.494 359.428 247.312C359.556 237.853 359.505 228.382 359.454 218.923C359.646 228.382 359.852 237.853 359.852 247.312C359.852 248.494 359.839 249.676 359.788 250.872C359.775 251.167 359.762 251.463 359.723 251.784C359.633 252.182 359.621 252.324 359.569 252.658L359.312 254.406L358.374 261.435L356.562 275.521L349.351 331.848C348.143 341.23 346.832 350.611 345.508 359.98L344.467 367.009C344.287 368.179 344.094 369.348 343.863 370.531L343.053 373.988L339.673 387.777L332.797 415.331L325.702 442.845Z" fill="#37474F"/>
<path d="M374.054 258.904C374.054 258.904 369.543 291.161 365.006 321.117L319.392 214.464H377.306C377.306 214.464 381.522 250.653 374.054 258.904Z" fill="#37474F"/>
<path d="M466.582 470.386C463.87 471.273 386.432 470.669 383.489 468.767C382.358 468.06 390.686 399.266 390.686 399.266L440.17 401.4L431.43 443.372C431.43 443.372 460.965 456.866 463.973 459.282C466.968 461.698 469.294 469.499 466.582 470.386Z" fill="#FFE2E1"/>
<path d="M466.582 470.386C465.387 470.771 449.771 470.874 432.381 470.707C431.237 470.694 430.08 470.681 428.923 470.669C425.954 470.643 422.96 470.604 419.991 470.553C418.834 470.527 417.677 470.502 416.533 470.489H416.482C415.338 470.463 414.194 470.437 413.076 470.412C411.341 470.386 409.644 470.334 407.999 470.296C406.919 470.257 405.865 470.232 404.824 470.206H404.786C403.745 470.167 402.729 470.129 401.74 470.103H401.701C400.21 470.065 398.784 470.013 397.421 469.949C396.509 469.923 395.609 469.885 394.748 469.833C393.064 469.756 391.535 469.679 390.172 469.589C389.491 469.55 388.835 469.512 388.244 469.448C386.766 469.332 385.571 469.216 384.761 469.088C384.093 468.985 383.656 468.869 383.489 468.754C383.09 468.51 383.347 460.13 383.836 449.245C391.316 450.993 404.991 453.743 425.903 456.751C460.297 461.698 450.04 452.445 444.205 449.31C444.154 449.271 444.09 449.245 444.038 449.22C444.398 449.387 444.771 449.554 445.131 449.734C445.182 449.759 445.259 449.785 445.311 449.811C445.979 450.132 446.647 450.441 447.303 450.762C448.023 451.096 448.755 451.456 449.488 451.803C450.696 452.381 451.904 452.947 453.061 453.525C454.23 454.077 455.336 454.63 456.39 455.157C457.019 455.478 457.624 455.787 458.215 456.069C458.51 456.211 458.78 456.365 459.063 456.506C459.436 456.699 459.809 456.879 460.168 457.072C460.952 457.47 461.634 457.843 462.212 458.177C462.353 458.254 462.495 458.318 462.623 458.408C463.253 458.768 463.716 459.077 463.986 459.282C466.968 461.698 469.294 469.499 466.582 470.386Z" fill="#263238"/>
<path d="M437.946 424.095L386.098 424.725C386.098 424.725 398.938 330.704 397.601 326.258C397.074 324.523 334.185 267.476 334.185 267.476C311.629 245.243 319.392 214.451 319.392 214.451H377.294C377.294 214.451 378.078 223.498 381.124 226.917C398.539 246.451 442.933 286.868 449.732 304.822C458.266 327.35 437.946 424.095 437.946 424.095Z" fill="#263238"/>
<path d="M319.559 234.409C319.726 237.866 320.317 241.284 321.397 244.549C322.412 247.826 323.801 250.987 325.446 254.007C328.749 260.022 332.952 265.535 337.746 270.457C342.476 275.456 347.63 280.07 352.758 284.696C357.912 289.297 363.143 293.821 368.4 298.332C365.611 296.288 362.886 294.142 360.161 292.009C357.462 289.837 354.789 287.639 352.141 285.416C346.871 280.918 341.704 276.292 336.859 271.305C332.078 266.255 327.785 260.664 324.61 254.444C323.042 251.334 321.731 248.083 320.819 244.716C319.919 241.349 319.443 237.866 319.559 234.409Z" fill="#37474F"/>
<path d="M363.85 218.936C363.747 221.159 363.876 223.395 364.325 225.58C364.57 226.647 364.852 227.765 365.392 228.703C366.035 229.603 366.767 230.438 367.5 231.286C370.431 234.627 373.477 237.892 376.51 241.156L394.697 260.754C400.763 267.283 406.817 273.824 412.806 280.417C418.796 287.022 424.772 293.641 430.479 300.504C431.893 302.226 433.281 303.986 434.605 305.785C435.26 306.698 435.916 307.61 436.481 308.6C436.764 309.075 437.047 309.641 437.201 310.219C437.355 310.772 437.471 311.337 437.561 311.903C438.203 316.401 438.011 320.873 437.843 325.332C437.394 334.251 436.442 343.119 435.389 351.973C434.322 360.828 433.088 369.657 431.764 378.473C430.402 387.276 428.949 396.079 427.394 404.857C428.795 396.053 430.093 387.237 431.314 378.409C432.574 369.593 433.756 360.751 434.772 351.909C435.774 343.054 436.674 334.187 437.072 325.307C437.226 320.873 437.368 316.388 436.725 312.044C436.635 311.504 436.532 310.977 436.378 310.463C436.237 309.962 436.018 309.525 435.736 309.037C435.183 308.099 434.54 307.199 433.898 306.312C432.587 304.539 431.186 302.804 429.772 301.095C424.117 294.219 418.192 287.575 412.241 280.944C406.29 274.312 400.275 267.745 394.247 261.178L376.176 241.477C373.194 238.162 370.212 234.846 367.333 231.453C366.626 230.592 365.894 229.757 365.264 228.819C364.711 227.816 364.467 226.724 364.236 225.631C363.799 223.408 363.709 221.159 363.85 218.936Z" fill="#37474F"/>
<path d="M433.898 411.784C426.649 411.565 428.731 411.488 421.482 411.385C417.934 411.334 394.619 411.051 391.303 411.822C391.226 411.835 391.226 412.015 391.303 412.028C394.619 412.799 417.934 412.516 421.482 412.465C428.731 412.362 426.649 412.285 433.898 412.066C434.039 412.079 434.039 411.784 433.898 411.784Z" fill="#37474F"/>
<path d="M394.298 192.411C393.578 192.372 390.223 192.192 385.313 191.948C383.835 188.697 382.242 183.016 383.694 175.254C383.938 173.969 380.327 181.179 380.751 191.717C371.265 191.228 358.348 190.56 347.089 189.879C347.205 185.471 347.102 181.371 347.102 181.371C346.472 184.507 345.586 187.322 344.634 189.738C343.092 189.66 341.588 189.545 340.136 189.455C340.984 182.656 340.714 170.679 340.714 170.679C339.069 178.865 335.933 185.278 333.735 189.018C326.589 188.504 321.898 188.041 322.219 187.72C333.967 176.141 326.589 168.404 330.483 157.725C335.162 144.925 346.588 143.691 346.999 133.847C347.346 125.841 347.449 111.254 357.783 108.915C357.783 108.915 366.677 100.536 379.196 106.461C394.696 113.773 386.522 137.947 387.241 143.049C388.257 150.322 391.47 153.111 393.398 161.465C395.377 169.921 391.2 175.126 390.352 180.703C389.503 186.281 396.097 192.526 394.298 192.411Z" fill="#263238"/>
<path d="M322.026 185.934C323.633 183.826 325.098 181.59 326.024 179.199C327.026 176.822 326.859 174.303 326.563 171.694C326.268 169.098 325.882 166.438 325.844 163.701C325.844 160.976 326.152 158.136 327.257 155.527C328.311 152.906 330.034 150.592 332.09 148.755C334.134 146.891 336.409 145.439 338.619 144C340.804 142.547 342.989 141.108 344.699 139.167C346.434 137.265 347.578 134.849 348.105 132.241C348.015 134.901 347.102 137.587 345.457 139.784C343.825 141.995 341.665 143.717 339.532 145.298C337.398 146.891 335.252 148.395 333.427 150.168C331.615 151.942 330.111 153.985 329.211 156.311C328.311 158.624 327.913 161.143 327.9 163.701C327.849 166.271 328.144 168.88 328.286 171.553C328.35 172.889 328.389 174.252 328.234 175.64C328.093 177.028 327.63 178.416 327.026 179.636C325.741 182.065 324.006 184.16 322.026 185.934Z" fill="#263238"/>
<path d="M387.511 116.318C388.527 119.441 388.745 122.756 388.964 126.021C389.131 129.298 389.131 132.562 389.092 135.826L389.079 140.697C389.079 142.329 389.169 143.858 389.465 145.375C390.031 148.433 391.509 151.158 393.205 153.959C394.015 155.373 394.85 156.851 395.493 158.419C396.136 159.987 396.624 161.645 396.907 163.328C397.138 165.024 397.254 166.682 397.228 168.366C397.215 170.049 396.997 171.759 396.573 173.391C396.161 175.036 395.57 176.578 395.056 178.094C394.542 179.611 394.169 181.166 393.951 182.734C393.475 185.831 394.889 189.056 397.254 191.28C394.58 189.416 392.781 186.114 392.935 182.657C393.012 180.973 393.308 179.328 393.732 177.722C394.143 176.115 394.67 174.586 394.953 173.044C395.57 169.998 395.429 166.759 394.915 163.688C394.606 162.159 394.182 160.681 393.565 159.241C392.961 157.802 392.177 156.44 391.354 155.039C390.545 153.638 389.709 152.186 389.002 150.644C388.308 149.089 387.756 147.444 387.473 145.747C387.19 144.051 387.152 142.329 387.203 140.697C387.229 139.052 387.331 137.42 387.421 135.788C387.601 132.536 387.82 129.285 387.91 126.046C388.051 122.782 388.064 119.531 387.511 116.318Z" fill="#263238"/>
<path d="M368.952 164.767C378.373 191.113 395.635 212.883 403.963 213.538C415.903 214.464 440.388 208.912 453.768 202.692C457.701 200.867 444.437 171.154 440.221 173.108C435.144 175.46 409.58 184.096 409.027 184.173C407.832 184.327 385.635 162.454 380.237 156.735C370.366 146.236 363.837 150.438 368.952 164.767Z" fill="#FFE2E1"/>
<path d="M448.022 204.182C451.904 203.861 466.325 201.342 475.476 196.677C479.91 194.415 491.966 186.576 490.488 183.042C489.01 179.508 485.282 181.487 485.282 181.487C485.282 181.487 489.884 177.413 488.071 173.982C486.259 170.55 480.565 173.828 480.565 173.828C480.565 173.828 484.987 169.304 482.93 166.014C480.887 162.724 475.707 166.978 475.707 166.978C475.707 166.978 479.936 163.02 477.108 161.028C473.702 158.624 466.736 166.785 461.698 169.047C460.554 169.561 437.804 177.773 437.804 177.773L448.022 204.182Z" fill="#FFE2E1"/>
<path d="M475.604 166.965C470.463 172.954 467.173 174.689 459.744 176.976C459.602 177.015 459.628 177.246 459.782 177.22C467.263 175.64 471.697 174.059 475.9 167.196C476.105 166.862 475.848 166.682 475.604 166.965Z" fill="#263238"/>
<path d="M480.861 173.648C474.974 179.405 471.427 181.32 463.818 184.289C463.715 184.327 463.767 184.52 463.882 184.481C471.594 182.194 475.977 180.523 481.105 173.995C481.336 173.686 481.131 173.378 480.861 173.648Z" fill="#263238"/>
<path d="M484.781 181.924C478.676 187.09 474.884 189.352 467.121 191.293C466.941 191.344 466.993 191.614 467.173 191.575C475.27 190.367 480.038 187.579 484.909 182.13C485.256 181.757 485.166 181.603 484.781 181.924Z" fill="#263238"/>
<path d="M436.956 177.002C436.956 177.002 442.341 168.7 445.516 165.577C448.691 162.454 464.795 155.167 466.569 158.547C468.857 162.93 460.387 168.97 455.85 171.386C455.85 171.386 461.158 181.5 456.017 187.154C450.876 192.796 436.956 177.002 436.956 177.002Z" fill="#FFE2E1"/>
<path d="M466.813 159.961C466.016 165.461 459.86 168.25 455.644 170.923C455.323 171.129 455.374 171.463 455.58 171.668C457.52 176.064 458.973 182.811 456.338 187.142C456.261 187.27 456.428 187.399 456.531 187.283C459.988 183.029 459.088 176.269 456.659 171.591C461.029 168.918 467.083 165.847 466.877 159.961C466.864 159.935 466.813 159.922 466.813 159.961Z" fill="#263238"/>
<path d="M421.841 178.711L429.065 212.022C429.065 212.022 407.343 218.306 400.48 214.129C393.604 209.953 375.79 187.129 369.415 167.903C363.04 148.677 369.697 144.604 383.758 159.653C397.819 174.689 408.564 183.633 409.117 183.53C409.644 183.402 421.841 178.711 421.841 178.711Z" fill="#3B82F6"/>
<path d="M416.276 182.284C416.25 182.181 416.07 182.219 416.083 182.322C417.484 192.218 419.592 202.049 422.06 211.726C422.085 211.829 422.265 211.79 422.252 211.688C420.749 201.818 418.847 191.948 416.276 182.284Z" fill="#263238"/>
<path opacity="0.1" d="M410.981 215.427C406.726 215.749 402.781 215.517 400.48 214.117C393.617 209.94 375.79 187.129 369.415 167.89C364.801 153.998 366.998 148.022 373.887 151.466L410.981 215.427Z" fill="black"/>
<path d="M381.021 201.317L377.294 214.464H319.379C319.379 214.464 332.245 167.787 354.223 153.42C365.212 146.236 372.692 149.5 377.486 157.673C378.695 159.743 387.756 179.752 388.193 188.324C388.668 197.436 381.021 201.317 381.021 201.317Z" fill="#3B82F6"/>
<path d="M374.89 196.883C372.718 197.089 370.533 197.397 368.387 198.078C367.32 198.412 366.266 198.823 365.212 199.273C364.685 199.492 364.158 199.685 363.631 199.877C363.091 200.07 362.5 200.25 361.948 200.25C361.896 200.25 361.896 200.366 361.935 200.366C362.475 200.417 362.989 200.468 363.528 200.417C364.043 200.366 364.557 200.237 365.071 200.083C366.163 199.762 367.23 199.35 368.323 199.003C370.508 198.309 372.692 197.615 374.903 197.153C374.993 197.127 374.993 196.87 374.89 196.883Z" fill="#263238"/>
<path d="M380.019 200.07C378.271 199.697 376.471 199.44 374.698 199.363C373.798 199.325 372.911 199.363 372.011 199.44C371.587 199.479 371.15 199.53 370.726 199.582C370.251 199.646 369.788 199.8 369.312 199.852C369.261 199.852 369.261 199.967 369.299 199.967C369.749 199.942 370.186 200.019 370.636 200.032C371.086 200.044 371.523 200.044 371.973 200.057C372.86 200.083 373.759 200.109 374.646 200.121C376.433 200.134 378.219 200.186 379.993 200.289C380.109 200.289 380.109 200.083 380.019 200.07Z" fill="#263238"/>
<path d="M356.459 150.798C327.849 153.805 305.395 162.917 297.619 167.055C292.542 169.754 264.304 189.673 257.865 195.585C254.703 198.477 274.677 222.226 278.378 219.527C283.404 215.864 314.572 187.797 315.009 187.45C316.705 186.101 349.994 165.783 356.935 161.979C368.528 155.63 369.158 149.461 356.459 150.798Z" fill="#FFE2E1"/>
<path d="M255.938 248.327C252.583 247.183 252.673 243.508 252.673 243.508C252.673 243.508 249.935 244.227 247.558 242.891C244.846 241.362 246.054 236.427 246.054 236.427C246.054 236.427 243.123 236.581 240.758 234.923C238.304 233.188 238.818 228.047 238.818 228.047C238.818 228.047 236.016 226.698 235 223.794C233.278 218.82 238.316 212.574 241.478 208.565C244.64 204.555 257.364 196.15 259.626 194.3L278.391 219.553C278.391 219.553 276.476 236.375 272.094 240.565C268.392 244.06 259.716 249.612 255.938 248.327Z" fill="#FFE2E1"/>
<path d="M253.225 243.636C258.058 240.835 261.785 236.748 265.744 232.892C265.834 232.803 265.693 232.674 265.603 232.751C261.708 236.632 257.094 239.704 253.058 243.431C252.956 243.533 253.097 243.713 253.225 243.636Z" fill="#263238"/>
<path d="M246.452 236.594C247.519 235.925 248.38 234.91 249.228 233.985C250.141 232.995 251.04 231.993 251.927 230.978C253.701 228.934 255.423 226.852 257.081 224.732C257.158 224.642 257.03 224.5 256.953 224.59C255.179 226.621 253.38 228.626 251.529 230.579C250.603 231.556 249.665 232.533 248.727 233.484C247.853 234.383 246.85 235.257 246.195 236.324C246.105 236.491 246.298 236.696 246.452 236.594Z" fill="#263238"/>
<path d="M238.907 227.945C239.858 227.405 240.591 226.3 241.285 225.464C242.069 224.513 242.866 223.575 243.663 222.637C245.257 220.761 246.85 218.885 248.521 217.072C248.598 216.982 248.47 216.841 248.38 216.931C246.683 218.769 244.961 220.581 243.277 222.431C242.455 223.344 241.632 224.256 240.822 225.169C240.128 225.953 239.177 226.852 238.817 227.855C238.792 227.932 238.856 227.97 238.907 227.945Z" fill="#263238"/>
<path d="M292.607 212.382L269.073 184.212C269.073 184.212 290.692 169.574 297.414 165.513C304.213 161.413 331.512 152.019 351.472 150.425C371.433 148.832 370.932 155.155 353.182 165.102C335.432 175.048 322.682 183.53 322.309 183.942C321.166 185.175 292.607 212.382 292.607 212.382Z" fill="#3B82F6"/>
<path d="M297.683 204.093C297.76 204.17 297.889 204.054 297.825 203.964C291.874 196.086 285.332 188.594 278.558 181.41C278.481 181.333 278.353 181.448 278.417 181.538C284.445 189.352 290.82 196.973 297.683 204.093Z" fill="#263238"/>
<path d="M323.389 183.029C325.638 181.448 327.952 179.945 330.265 178.467C332.579 176.976 334.944 175.563 337.27 174.11C339.648 172.722 342 171.296 344.391 169.934C346.781 168.571 349.185 167.235 351.627 165.975C349.365 167.569 347.064 169.06 344.751 170.551C342.437 172.028 340.085 173.455 337.746 174.907C335.368 176.295 333.029 177.722 330.638 179.071C328.248 180.433 325.844 181.77 323.389 183.029Z" fill="#263238"/>
<path d="M344.596 170.383C345.534 169.844 346.524 169.458 347.514 169.111C348.516 168.777 349.519 168.494 350.586 168.289C350.149 168.623 349.673 168.867 349.197 169.098C348.722 169.33 348.221 169.522 347.719 169.689C346.704 170.011 345.676 170.293 344.596 170.383Z" fill="#263238"/>
<path d="M365.058 155.72C365.443 156.915 371.883 164.33 377.409 163.624C379.209 163.392 378.373 153.497 378.373 153.497L378.476 152.751L379.941 142.329L367.294 135.582L365.469 134.695C365.469 134.695 365.251 137.574 365.032 141.159C365.019 141.326 365.006 141.494 364.993 141.673C364.981 141.879 364.955 142.072 364.942 142.252C364.903 142.792 364.865 143.331 364.839 143.884C364.813 144.295 364.788 144.706 364.788 145.143C364.762 145.58 364.762 146.004 364.736 146.441C364.646 150.759 364.903 155.206 365.058 155.72Z" fill="#FFE2E1"/>
<path d="M365.045 141.159C368.631 149.076 375.417 151.865 378.489 152.751L379.954 142.329L367.307 135.582L365.482 134.695C365.482 134.695 365.263 137.574 365.045 141.159Z" fill="#263238"/>
<path d="M392.023 122.384C398.167 139.81 388.437 145.452 384.671 146.775C381.265 147.971 369.492 151.633 361.575 134.939C353.657 118.245 359.814 109.879 367.474 106.731C375.134 103.556 385.879 104.957 392.023 122.384Z" fill="#FFE2E1"/>
<path d="M388.476 121.728C388.116 121.972 387.73 122.127 387.345 122.319C386.908 122.538 386.586 122.769 386.072 122.705C385.802 122.679 385.558 122.358 385.558 122.088C385.571 121.471 386.034 121.06 386.548 120.764C387.1 120.443 387.615 120.353 388.244 120.456C388.861 120.571 388.951 121.42 388.476 121.728Z" fill="#263238"/>
<path d="M376.767 126.008C377.191 125.905 377.564 125.725 377.975 125.584C378.438 125.417 378.823 125.327 379.119 124.915C379.286 124.697 379.209 124.298 379.016 124.119C378.553 123.707 377.936 123.772 377.371 123.951C376.767 124.144 376.343 124.453 375.996 124.992C375.649 125.506 376.201 126.149 376.767 126.008Z" fill="#263238"/>
<path d="M380.404 128.09C380.378 128.051 380.327 128.18 380.34 128.218C380.738 129.413 380.995 130.84 380.031 131.572C380.006 131.598 380.019 131.649 380.057 131.637C381.33 131.058 380.97 129.156 380.404 128.09Z" fill="#263238"/>
<path d="M378.952 127.164C376.973 127.601 377.988 131.534 379.826 131.123C381.625 130.724 380.61 126.792 378.952 127.164Z" fill="#263238"/>
<path d="M378.232 127.575C377.949 127.884 377.718 128.372 377.307 128.514C376.844 128.681 376.368 128.372 375.957 128.051C375.919 128.012 375.893 128.064 375.906 128.115C376.086 128.873 376.574 129.567 377.422 129.477C378.181 129.388 378.541 128.591 378.528 127.781C378.515 127.614 378.348 127.447 378.232 127.575Z" fill="#263238"/>
<path d="M386.882 125.57C386.882 125.519 386.998 125.596 387.011 125.648C387.306 126.868 387.859 128.218 389.067 128.321C389.106 128.321 389.119 128.385 389.08 128.398C387.679 128.578 386.972 126.778 386.882 125.57Z" fill="#263238"/>
<path d="M387.615 124.016C389.53 123.335 390.764 127.19 388.99 127.833C387.255 128.449 386.021 124.581 387.615 124.016Z" fill="#263238"/>
<path d="M388.437 123.977C388.849 124.093 389.298 124.363 389.723 124.273C390.211 124.17 390.429 123.656 390.622 123.167C390.635 123.116 390.686 123.142 390.699 123.193C390.944 123.926 390.905 124.787 390.147 125.147C389.453 125.481 388.72 124.992 388.296 124.298C388.219 124.17 388.283 123.926 388.437 123.977Z" fill="#263238"/>
<path d="M382.679 137.535C383.039 137.767 383.411 138.101 383.861 138.037C384.298 137.985 384.761 137.677 385.121 137.445C385.159 137.42 385.211 137.458 385.185 137.497C384.967 138.036 384.35 138.473 383.758 138.499C383.18 138.525 382.807 138.101 382.563 137.612C382.537 137.548 382.627 137.51 382.679 137.535Z" fill="#263238"/>
<path d="M386.561 131.765C386.561 131.765 387.306 133.513 387.537 134.361C387.563 134.438 387.357 134.541 387.075 134.631C387.062 134.644 387.062 134.644 387.036 134.644C385.597 135.286 383.926 135.184 382.679 134.194C382.602 134.13 382.679 134.014 382.769 134.04C384.119 134.567 385.43 134.438 386.766 134.091C386.766 133.834 385.391 131.148 385.532 131.097C385.995 130.93 386.998 130.994 387.589 131.007C386.149 127.331 384.119 123.913 382.743 120.225C382.692 120.096 382.885 119.993 382.949 120.109C385.327 123.54 387.075 127.743 388.668 131.495C388.874 131.984 386.933 131.816 386.561 131.765Z" fill="#263238"/>
<path d="M386.869 134.348C386.869 134.348 386.381 135.723 385.365 136.481C384.993 136.764 384.556 136.957 384.042 136.983C382.988 137.021 382.692 136.135 382.628 135.325C382.576 134.657 382.705 134.014 382.705 134.014C382.705 134.014 384.543 134.914 386.869 134.348Z" fill="#263238"/>
<path d="M385.366 136.494C384.993 136.777 384.556 136.97 384.042 136.996C382.988 137.034 382.692 136.147 382.628 135.338C383.708 135.106 384.967 135.505 385.366 136.494Z" fill="#FF99BA"/>
<path d="M361.922 135.209C366.189 133.86 363.965 127.177 363.965 127.177C363.965 127.177 368.644 125.172 366.459 117.269C366.459 117.269 370.314 121.201 377.152 120.032C378.605 119.788 372.795 117.706 372.795 117.706C372.795 117.706 379.993 120.918 389.671 115.649C390.352 115.277 385.249 104.906 375.957 103.839C366.664 102.772 360.058 107.257 356.716 113.979C356.716 113.979 352.848 117.5 354.017 123.322C355.2 129.169 360.264 135.736 361.922 135.209Z" fill="#263238"/>
<path d="M365.854 134.567C365.854 134.567 360.508 129.992 358.335 132.035C356.163 134.078 361.189 141.416 364.453 141.751C367.718 142.085 368.091 139.077 368.091 139.077L365.854 134.567Z" fill="#FFE2E1"/>
<path d="M359.826 134.104C359.775 134.117 359.788 134.181 359.826 134.181C362.127 134.49 363.734 136.135 365.019 137.947C364.196 137.33 363.245 137.124 362.397 138.139C362.358 138.191 362.423 138.268 362.487 138.242C363.297 137.844 363.952 137.831 364.698 138.358C365.237 138.731 365.674 139.283 366.111 139.759C366.253 139.926 366.574 139.733 366.446 139.54C366.433 139.527 366.42 139.514 366.42 139.502C365.777 136.829 362.744 133.641 359.826 134.104Z" fill="#263238"/>
<path d="M581.113 108.633C589.776 131.302 613.81 161.336 619.813 163.521C629.337 166.991 659.592 154.782 671.044 148.69C674.488 146.853 659.759 116.074 656.25 118.323C648.809 123.09 628.45 131.611 625.789 131.405C624.016 131.264 605.058 114.287 593.272 104.302C578.388 91.6688 578.838 102.682 581.113 108.633Z" fill="#FFEEEE"/>
<path d="M600.611 145.721L611.728 117.346C611.728 117.346 600.161 106.191 588.722 98.9296C577.283 91.6557 576.704 103.338 585.341 119.505C593.966 135.659 600.611 145.721 600.611 145.721Z" fill="#3B82F6"/>
<path d="M596.973 138.049C599.12 131.816 601.703 125.738 604.402 119.71C605.161 118.001 605.97 116.317 606.806 114.66C606.831 114.608 606.908 114.634 606.883 114.685C605.739 117.77 604.479 120.815 603.233 123.861C601.986 126.92 600.713 129.966 599.377 132.986C598.618 134.695 597.873 136.391 597.089 138.088C597.05 138.165 596.948 138.126 596.973 138.049Z" fill="#263238"/>
<path opacity="0.2" d="M607.063 129.22L600.611 145.721C600.611 145.721 593.966 135.659 585.329 119.492C580.638 110.689 578.658 103.235 579.674 99.418C586.614 106.923 599.544 120.983 607.063 129.22Z" fill="black"/>
<path d="M660.967 149.371C656.944 148.343 652.176 122.319 655.119 119.235C655.672 118.657 656.944 117.821 658.679 116.883C658.679 116.87 658.679 116.87 658.679 116.87C658.679 116.87 664.9 109.686 667.959 101.873C670.53 95.3186 673.602 85.2817 677.187 86.5283C682.419 88.3403 680.054 101.5 678.241 108.967C682.264 107.836 685.837 107.232 688.035 107.643C695.361 109.018 697.495 137.073 691.634 141.866C685.735 146.673 664.99 150.4 660.967 149.371Z" fill="#FFEEEE"/>
<path d="M731.414 94.8174L726.556 32.334C726.633 33.3236 726.851 34.3517 727.314 35.4312C727.764 36.485 728.406 37.4874 729.216 38.4384C735.257 45.391 751.272 49.195 776.964 49.7862L781.823 112.27C756.13 111.678 740.115 107.874 734.075 100.922C733.252 99.9836 732.622 98.9812 732.172 97.9146C731.722 96.835 731.491 95.8198 731.414 94.8174Z" fill="#2A5C8A"/>
<g opacity="0.1">
<path opacity="0.1" d="M731.414 94.8174L726.556 32.334C726.633 33.3236 726.851 34.3517 727.314 35.4312C727.764 36.485 728.406 37.4874 729.216 38.4384C735.257 45.391 751.272 49.195 776.964 49.7862L781.823 112.27C756.13 111.678 740.115 107.874 734.075 100.922C733.252 99.9836 732.622 98.9812 732.172 97.9146C731.722 96.835 731.491 95.8198 731.414 94.8174Z" fill="#2A5C8A"/>
</g>
<path d="M732.031 85.8471C732.159 87.4278 731.928 88.9443 731.722 90.4222C731.504 91.9001 731.298 93.3395 731.414 94.8302L726.555 32.3469C726.44 30.8561 726.645 29.4168 726.864 27.9389C727.082 26.4609 727.301 24.9573 727.172 23.3638C728.637 42.1011 730.578 67.097 732.031 85.8471Z" fill="#3B82F6"/>
<g opacity="0.4">
<path opacity="0.4" d="M732.031 85.8471C732.159 87.4278 731.928 88.9443 731.722 90.4222C731.504 91.9001 731.298 93.3395 731.414 94.8302L726.555 32.3469C726.44 30.8561 726.645 29.4168 726.864 27.9389C727.082 26.4609 727.301 24.9573 727.172 23.3638C728.637 42.1011 730.578 67.097 732.031 85.8471Z" fill="black"/>
</g>
<path d="M727.185 23.3638L732.044 85.8471C731.954 84.7162 731.696 83.5467 731.131 82.313C730.655 81.272 730.026 80.3082 729.229 79.3957C722.957 72.1733 706.711 68.742 679.823 68.9476L674.964 6.46422C701.852 6.2586 718.098 9.68991 724.37 16.9124C725.167 17.8248 725.797 18.8015 726.273 19.8296C726.838 21.0634 727.095 22.2329 727.185 23.3638Z" fill="#4372B5"/>
<path d="M676.564 0.0293641L673.591 0.258942L700.381 347.102L703.354 346.872L676.564 0.0293641Z" fill="#263238"/>
<path d="M674.141 106.898C672.676 110.483 677.74 110.162 677.74 110.162C677.74 110.162 670.555 112.385 670.478 116.678C670.414 120.803 676.519 120.199 676.956 120.16C676.583 120.276 670.028 122.499 670.401 126.817C670.787 131.302 676.802 129.632 677.2 129.529C676.879 129.76 672.676 132.819 673.691 136.032C675.452 141.558 686.416 134.001 690.991 135.042C690.991 135.042 688.639 143.447 688.665 143.691C688.665 143.691 700.708 136.263 701.775 130.017C702.34 126.727 699.371 125.558 699.371 125.558C699.371 125.558 703.034 123.682 702.854 120.289C702.764 118.541 699.873 117.14 699.873 117.14C699.873 117.14 702.739 115.521 702.392 112.501C702.122 110.098 699.269 109.057 699.269 109.057C699.269 109.057 701.299 106.229 700.22 103.852C698.073 99.0455 677.277 99.2254 674.141 106.898Z" fill="#FFEEEE"/>
<path d="M698.844 108.8C698.908 108.8 698.934 108.71 698.87 108.697C692.019 107.09 683.999 107.425 677.47 110.149C677.251 110.239 677.303 110.625 677.56 110.573C684.822 109.044 691.402 108.273 698.844 108.8Z" fill="#263238"/>
<path d="M699.975 117.076C700.052 117.076 700.065 116.947 699.988 116.935C692.919 115.315 683.896 115.932 676.737 119.967C676.493 120.109 676.416 120.482 676.699 120.34C681.66 118.014 693.266 116.549 699.975 117.076Z" fill="#263238"/>
<path d="M676.789 129.966C683.806 126.367 691.261 125.365 699.075 125.455C699.178 125.455 699.165 125.314 699.088 125.288C695.284 124.208 690.297 124.671 686.441 125.365C682.752 126.033 679.565 127.37 676.66 129.722C676.557 129.812 676.634 130.043 676.789 129.966Z" fill="#263238"/>
<path d="M677.624 110.098C677.367 110.2 677.804 110.457 677.56 110.573C676.493 111.062 670.324 114.544 670.864 117.012C671.301 118.991 674.257 119.775 675.516 119.633L678.678 119.274L675.838 120.713C674.604 121.343 673.383 122.178 672.419 123.167C671.455 124.157 670.761 125.391 670.864 126.637C670.954 127.935 671.725 128.963 672.997 129.22C674.231 129.516 675.722 129.31 677.007 128.925L680.606 127.833L677.573 130.03C676.75 130.621 675.941 131.367 675.298 132.163C674.655 132.96 674.141 133.873 674.064 134.798C673.987 135.698 674.411 136.649 675.169 137.06C675.966 137.51 677.059 137.522 678.1 137.445C680.233 137.253 682.341 136.584 684.475 136.032C685.542 135.749 686.608 135.466 687.688 135.222C688.768 135.004 689.899 134.772 690.991 135.029C689.886 134.888 688.819 135.235 687.765 135.518C686.711 135.826 685.683 136.199 684.642 136.559C682.56 137.291 680.465 137.998 678.203 138.332C677.084 138.461 675.863 138.563 674.668 137.985C673.434 137.381 672.817 135.98 672.907 134.708C672.997 133.41 673.64 132.318 674.347 131.405C675.079 130.48 675.889 129.709 676.84 128.989L677.406 130.094C675.889 130.57 674.334 130.84 672.663 130.493C671.841 130.313 670.992 129.85 670.44 129.131C669.874 128.411 669.63 127.563 669.566 126.702C669.463 124.928 670.44 123.386 671.532 122.306C672.663 121.188 673.936 120.353 675.336 119.672L675.658 120.751C674.051 120.88 670.658 120.353 669.591 117.372C668.794 113.298 676.236 110.509 677.624 110.098Z" fill="#263238"/>
<path d="M677.74 110.162C676.904 110.033 676.107 109.828 675.452 109.494C674.796 109.172 674.411 108.62 674.385 108.016C674.334 107.412 674.668 106.705 675.066 106.049C675.49 105.394 675.966 104.726 676.48 104.045C675.696 104.392 674.989 104.88 674.398 105.535C673.82 106.178 673.28 107.013 673.318 108.093C673.37 108.62 673.575 109.121 673.91 109.519C674.257 109.905 674.706 110.162 675.156 110.278C676.043 110.547 676.93 110.445 677.74 110.162Z" fill="#263238"/>
<path d="M559.071 366.508C559.071 366.508 550.665 413.763 550.665 413.801C549.341 422.887 548.352 430.881 548.223 435.057C548.223 435.083 548.21 435.096 548.223 435.122C548.172 436.702 548.249 437.718 548.48 438.026C548.493 438.052 548.506 438.077 548.532 438.09C550.974 440.314 623.309 452.972 625.97 452.561C628.656 452.163 627.692 444.503 625.276 441.779C622.834 439.041 597.321 421.82 597.321 421.82L605.11 374.489L559.071 366.508Z" fill="#FFEEEE"/>
<path d="M552.027 404.034C552.027 404.034 550.665 413.763 550.665 413.801C549.341 422.887 548.352 430.881 548.223 435.057C548.223 435.083 548.21 435.096 548.223 435.122C548.262 436.689 548.352 437.743 548.48 438.026C548.493 438.052 548.506 438.077 548.531 438.09C550.973 440.314 623.309 452.972 625.969 452.561C628.656 452.163 627.692 444.503 625.275 441.779C622.833 439.041 597.321 421.82 597.321 421.82L598.837 411.925L552.027 404.034Z" fill="#EBEBEB"/>
<path d="M625.905 452.831C623.193 453.242 549.675 440.404 547.169 438.142C546.218 437.293 547.092 425.766 550.292 413.403L597.68 421.73C597.68 421.73 622.718 439.08 625.185 441.856C627.64 444.632 628.63 452.42 625.905 452.831Z" fill="#3B82F6"/>
<path d="M625.365 449.708C613.091 447.253 563.376 438.514 551.051 437.024C550.948 437.011 550.935 437.075 551.038 437.101C563.145 439.799 612.937 448.14 625.327 449.913C625.597 449.939 625.635 449.759 625.365 449.708Z" fill="#263238"/>
<path d="M620.931 438.399C618.026 437.769 614.929 438.656 613.027 440.121C611.202 441.522 609.479 443.642 609.119 446.225C609.107 446.302 609.248 446.328 609.274 446.251C610.816 441.547 615.944 438.077 620.906 438.566C620.995 438.566 621.021 438.412 620.931 438.399Z" fill="#263238"/>
<path d="M601.344 423.645C596.421 422.72 590.406 423.453 586.627 426.961C586.486 427.102 586.679 427.308 586.833 427.257C591.691 425.74 596.228 424.763 601.318 424.275C601.678 424.236 601.691 423.71 601.344 423.645Z" fill="#263238"/>
<path d="M604.891 425.804C599.968 424.879 593.953 425.612 590.174 429.12C590.033 429.261 590.226 429.467 590.38 429.416C595.238 427.899 599.775 426.922 604.865 426.434C605.225 426.383 605.238 425.869 604.891 425.804Z" fill="#263238"/>
<path d="M608.438 427.95C603.516 427.025 597.501 427.758 593.722 431.266C593.581 431.407 593.773 431.613 593.928 431.562C598.786 430.045 603.323 429.069 608.413 428.58C608.773 428.542 608.786 428.015 608.438 427.95Z" fill="#263238"/>
<path d="M611.986 430.097C607.063 429.171 601.048 429.904 597.269 433.412C597.128 433.554 597.321 433.759 597.475 433.708C602.333 432.191 606.87 431.215 611.96 430.726C612.32 430.688 612.333 430.161 611.986 430.097Z" fill="#263238"/>
<path d="M563.068 166.914C563.068 166.914 572.052 286.56 572.36 288.256C572.399 288.41 548.21 410.563 548.21 410.563L600.572 419.636C600.572 419.636 617.885 301.891 618.039 288.886C618.309 266.589 615.044 199.736 606.844 166.901H563.068V166.914Z" fill="#455A64"/>
<path d="M600.418 406.797C599.159 406.257 567.939 400.179 555.729 398.971C555.601 398.958 555.292 399.266 555.716 399.42C559.019 400.59 599.57 407.196 600.354 407.157C600.508 407.144 600.547 406.849 600.418 406.797Z" fill="#263238"/>
<path d="M575.085 176.167C574.892 174.766 574.648 173.391 574.404 172.003C574.365 171.797 574.031 171.848 574.044 172.067C574.494 178.069 575.317 184.032 575.985 190.007C576.653 195.996 584.236 286.161 583.941 289.104C583.645 292.022 583.003 294.9 582.334 297.753C580.959 303.575 565.356 379.809 562.4 391.453C562.027 392.905 561.731 394.383 561.436 395.848C561.397 396.028 561.654 396.079 561.705 395.912C563.749 390.206 585.483 294.759 585.586 288.873C585.676 282.923 576.756 188.247 575.085 176.167Z" fill="#263238"/>
<path d="M617.731 269.66L568.517 239.01C565.947 205.378 563.068 166.914 563.068 166.914H606.857C613.425 193.233 617.075 241.117 617.731 269.66Z" fill="#263238"/>
<path d="M634.606 356.484C634.606 356.484 631.65 404.42 631.65 404.446C631.033 413.609 630.66 421.654 630.853 425.83C630.853 425.856 630.853 425.869 630.853 425.895C630.93 427.475 631.072 428.491 631.342 428.773C631.367 428.799 631.367 428.825 631.393 428.838C634.002 430.868 707.096 437.898 709.718 437.281C712.366 436.677 710.81 429.12 708.188 426.589C705.554 424.044 678.781 408.841 678.781 408.841L681.275 360.905L634.606 356.484Z" fill="#FFEEEE"/>
<path d="M632.254 394.602C632.254 394.602 631.65 404.407 631.65 404.446C631.033 413.609 630.66 421.654 630.853 425.83C630.853 425.856 630.853 425.869 630.853 425.895C631.02 427.462 631.187 428.491 631.342 428.773C631.367 428.799 631.367 428.825 631.393 428.838C634.002 430.868 707.096 437.898 709.718 437.281C712.366 436.677 710.81 429.12 708.188 426.589C705.554 424.044 678.781 408.841 678.781 408.841L679.54 398.868L632.254 394.602Z" fill="#EBEBEB"/>
<path d="M710.052 437.152C707.392 437.821 632.974 432.127 630.275 430.123C629.247 429.364 629.003 417.811 630.995 405.204L678.961 408.931C678.961 408.931 705.554 423.787 708.279 426.319C710.99 428.838 712.726 436.484 710.052 437.152Z" fill="#3B82F6"/>
<path d="M709.217 434.094C696.762 432.835 646.431 428.928 634.028 428.619C633.925 428.619 633.925 428.684 634.028 428.696C646.341 430.213 696.711 433.721 709.204 434.287C709.461 434.312 709.474 434.12 709.217 434.094Z" fill="#263238"/>
<path d="M703.703 423.273C700.759 422.926 697.752 424.108 696.004 425.753C694.32 427.321 692.816 429.609 692.701 432.205C692.701 432.282 692.829 432.295 692.855 432.217C693.935 427.385 698.703 423.44 703.69 423.44C703.793 423.427 703.806 423.286 703.703 423.273Z" fill="#263238"/>
<path d="M682.791 410.473C677.804 410.023 671.879 411.347 668.46 415.189C668.332 415.344 668.537 415.524 668.692 415.459C673.383 413.48 677.804 412.079 682.817 411.103C683.177 411.026 683.138 410.512 682.791 410.473Z" fill="#263238"/>
<path d="M686.531 412.272C681.545 411.822 675.619 413.146 672.201 416.989C672.072 417.143 672.278 417.323 672.432 417.258C677.123 415.279 681.545 413.879 686.557 412.902C686.917 412.825 686.879 412.311 686.531 412.272Z" fill="#263238"/>
<path d="M690.259 414.071C685.272 413.622 679.347 414.945 675.928 418.788C675.8 418.942 676.005 419.122 676.159 419.058C680.851 417.079 685.272 415.678 690.285 414.701C690.657 414.624 690.619 414.11 690.259 414.071Z" fill="#263238"/>
<path d="M693.999 415.871C689.012 415.421 683.087 416.744 679.668 420.587C679.54 420.741 679.745 420.921 679.9 420.857C684.591 418.878 689.012 417.477 694.025 416.5C694.398 416.423 694.359 415.909 693.999 415.871Z" fill="#263238"/>
<path d="M629.196 401.361L683.074 406.296C683.074 406.296 697.945 261.911 692.714 246.476C685.786 226.017 595.791 197.166 598.066 194.248C598.066 194.248 602.359 176.925 606.857 166.914H540.73C531.823 193.169 536.874 211.752 539.946 216.995C554.405 241.619 642.922 267.296 642.01 273.76C640.583 283.951 629.196 401.361 629.196 401.361Z" fill="#455A64"/>
<path d="M679.386 394.241C678.087 393.83 646.431 390.746 634.157 390.72C634.028 390.72 633.745 391.054 634.195 391.17C637.601 392.018 678.589 394.73 679.373 394.614C679.501 394.588 679.514 394.28 679.386 394.241Z" fill="#263238"/>
<path d="M605.52 193.375C604.659 193.413 603.811 193.336 602.95 193.426C602.101 193.503 601.24 193.58 600.392 193.683C598.734 193.889 597.102 194.236 595.469 194.595C592.231 195.328 588.915 196.266 585.894 197.654C585.778 197.705 585.868 197.86 585.971 197.834C589.249 197.166 592.5 196.318 595.778 195.636C597.372 195.315 598.965 195.058 600.559 194.737C601.395 194.57 602.243 194.39 603.078 194.248C603.914 194.107 604.723 193.837 605.572 193.683C605.752 193.657 605.7 193.362 605.52 193.375Z" fill="#263238"/>
<path d="M605.624 166.978C605.624 166.901 605.521 166.914 605.508 166.978C604.839 173.403 604.467 178.017 602.976 184.314C602.667 185.587 602.256 186.949 601.318 187.9C600.804 188.414 600.135 188.864 599.454 188.363C598.824 187.913 598.67 187.116 598.683 186.383C598.683 184.777 599.094 183.132 599.274 181.538C599.454 180.022 599.583 178.493 599.711 176.963C600.02 173.275 599.994 170.872 600.135 167.171C600.135 167.042 599.943 167.042 599.93 167.171C599.711 170.987 599.12 173.519 598.619 177.31C598.375 179.148 598.105 180.973 597.848 182.798C597.616 184.379 597.051 186.255 597.565 187.823C597.886 188.799 598.735 189.673 599.763 189.815C599.724 189.905 599.686 190.007 599.647 190.097C599.454 190.547 599.274 191.01 599.081 191.473C598.722 192.372 598.387 193.297 597.989 194.184C597.938 194.3 598.079 194.428 598.182 194.326C598.876 193.567 599.377 192.732 599.737 191.781C599.981 191.164 600.187 190.496 600.328 189.815C601.626 189.66 602.629 188.388 603.169 187.296C603.824 185.972 604.081 184.52 604.338 183.081C604.672 181.217 604.942 179.341 605.174 177.465C605.688 173.416 605.765 171.077 605.624 166.978Z" fill="#263238"/>
<path d="M575.278 171.977C575.24 171.771 574.918 171.797 574.867 171.99C574.52 173.493 574.417 175.048 574.199 176.578C573.993 178.069 573.723 179.572 573.389 181.037C572.81 183.595 571.962 186.191 570.227 188.208C566.538 192.488 560.228 193.606 554.868 193.516C554.739 193.516 554.752 193.709 554.868 193.722C559.598 194.236 564.559 194.531 568.749 191.845C572.682 189.326 574.211 185.021 574.918 180.6C575.368 177.824 575.792 174.779 575.278 171.977Z" fill="#263238"/>
<path d="M612.898 200.983C610.405 199.582 607.809 198.438 605.161 197.358C602.577 196.317 599.904 195.534 597.308 194.531C597.205 194.493 597.128 194.673 597.231 194.711C599.84 195.868 602.346 197.217 604.968 198.322C607.539 199.402 610.135 200.391 612.821 201.137C612.937 201.175 612.988 201.034 612.898 200.983Z" fill="#263238"/>
<path d="M625.121 253.879C622.589 252.362 580.419 234.255 577.81 232.841C575.149 231.402 572.54 229.885 569.944 228.33C565.009 225.362 560.073 222.226 555.562 218.64C551.243 215.196 547.529 211.109 545.511 205.905C543.519 200.777 543.12 195.264 543.159 189.815C543.21 182.836 543.814 175.717 545.061 168.841C545.087 168.713 544.894 168.661 544.868 168.79C543.724 175.087 542.735 181.384 542.349 187.784C542.015 193.349 542.195 199.081 543.814 204.465C545.421 209.799 548.608 214.219 552.747 217.895C557.104 221.763 562.13 224.95 567.104 227.945C570.073 229.731 573.106 231.415 576.19 232.995C579.211 234.55 621.766 253.108 625.005 254.174C625.185 254.239 625.275 253.969 625.121 253.879Z" fill="#263238"/>
<path d="M652.266 267.36C651.521 265.869 617.474 250.01 614.672 249.291C614.543 249.265 614.402 249.766 614.517 249.805C616.394 250.576 650.672 267.064 651.174 267.81C652.202 269.352 641.47 382.38 641.47 383.511C641.47 383.832 641.92 383.857 642.01 383.575C642.639 381.519 653.14 269.108 652.266 267.36Z" fill="#263238"/>
<path d="M534.38 188.273C534.573 188.465 611.176 184.032 611.844 183.209C612.782 182.052 591.781 107.309 583.439 97.3105C581.653 95.1772 576.049 94.7917 571.319 95.5756C570.008 95.7812 568.774 96.0897 567.695 96.4752C567.669 96.488 567.63 96.5009 567.579 96.5137C566.486 96.9121 565.574 97.4005 564.944 97.9403C552.168 109.018 543.21 141.558 541.064 152.726C537.516 171.129 533.712 187.579 534.38 188.273Z" fill="#3B82F6"/>
<path d="M562.155 99.6109C534.367 107.065 513.623 119.582 506.592 124.877C502.004 128.347 477.237 152.443 471.8 159.28C469.139 162.634 492.583 182.965 495.809 179.713C500.192 175.305 526.591 142.702 526.964 142.303C528.429 140.71 558.132 115.431 564.378 110.586C574.841 102.502 574.494 96.3081 562.155 99.6109Z" fill="#FFEEEE"/>
<path d="M442.29 190.791C442.817 191.164 443.305 191.241 443.794 191.087C443.203 193.734 443.383 195.996 445.233 196.832C446.313 197.333 447.444 196.96 448.524 196.06C448.447 197.423 448.909 198.399 450.143 198.746C452.328 199.35 455.773 195.559 458.767 191.421C457.161 194.583 456.377 197.461 458.305 198.091C463.446 199.723 469.178 189.75 474.011 183.53C475.437 181.68 477.404 179.521 479.152 178.338C479.473 178.12 479.794 177.94 480.116 177.799C481.028 177.387 481.851 177.336 482.442 177.901C483.496 178.904 481.954 181.885 480.347 183.466C477.301 186.46 476.106 192.912 477.957 194.84C480.668 197.667 486.735 189.879 489.524 187.694C493.251 184.764 497.03 176.848 497.428 176.398C497.428 176.398 496.657 174.881 494.575 171.334C490.617 164.587 484.023 154.525 479.229 153.098C479.229 153.098 463.78 157.93 451.069 166.952C446.763 170.036 437.83 187.707 442.29 190.791Z" fill="#FFEEEE"/>
<path d="M469.422 176.372C466.646 178.043 464.782 179.816 462.945 182.515C460.605 185.934 460.065 188.234 458.407 191.832C458.369 191.922 458.51 191.999 458.549 191.909C459.346 190.2 462.25 184.623 463.202 183.042C464.95 180.163 466.62 178.236 469.448 176.411C469.487 176.411 469.461 176.359 469.422 176.372Z" fill="#263238"/>
<path d="M464.101 171.784C461.158 174.046 459.217 175.665 456.775 178.493C454.115 181.59 452.611 185.484 451.12 189.249C450.22 191.511 449.372 193.786 448.575 196.099C448.536 196.202 448.678 196.266 448.716 196.176C450.207 192.308 451.814 188.478 453.549 184.7C455.168 181.153 457.341 178.069 460.181 175.408C461.788 173.905 462.417 173.211 464.127 171.848C464.165 171.81 464.127 171.758 464.101 171.784Z" fill="#263238"/>
<path d="M459.089 167.646C456.145 169.612 453.472 171.309 451.326 174.2C448.485 178.03 446.814 182.746 446.082 184.648C445.285 186.743 444.552 188.864 443.858 190.997C443.832 191.087 443.974 191.138 444.012 191.048C445.67 186.332 447.624 181.705 449.873 177.246C450.94 175.113 451.93 173.789 453.588 172.093C455.233 170.409 457.186 169.047 459.089 167.672C459.114 167.646 459.101 167.633 459.089 167.646Z" fill="#263238"/>
<path d="M458.318 198.091C457.906 197.885 457.546 197.564 457.379 197.14C457.199 196.716 457.212 196.253 457.264 195.803C457.366 194.904 457.714 194.043 458.035 193.195C458.202 192.771 458.382 192.346 458.51 191.897C458.523 191.871 458.523 191.832 458.536 191.794C458.536 191.755 458.549 191.794 458.536 191.704C458.51 191.614 458.433 191.575 458.395 191.588C458.24 191.627 458.279 191.665 458.24 191.678C458.215 191.704 458.189 191.73 458.176 191.755L457.971 192.038L457.585 192.603C457.084 193.362 456.557 194.12 456.004 194.84C454.886 196.253 453.652 197.693 452.033 198.399C451.223 198.734 450.349 198.695 449.603 198.245C448.845 197.86 448.55 196.947 448.819 196.189L449.154 195.238L448.408 195.919C447.855 196.433 447.071 196.793 446.313 196.78C445.542 196.767 444.796 196.446 444.449 195.752C444.077 195.084 443.922 194.261 443.884 193.452C443.845 192.642 443.91 191.807 444.128 191.061L444.295 190.496L443.743 190.727C443.344 190.894 442.766 190.753 442.342 190.444C441.866 190.136 441.66 189.686 441.519 189.121C441.262 188.016 441.326 186.82 441.455 185.664C441.75 183.325 442.534 181.204 443.421 179.007C445.233 174.624 447.843 170.448 451.081 166.965C447.701 170.332 444.874 174.29 442.971 178.698C442.02 180.896 441.275 183.209 440.953 185.599C440.812 186.795 440.722 188.028 441.005 189.249C441.082 189.558 441.185 189.866 441.339 190.149C441.493 190.457 441.776 190.701 442.02 190.881C442.547 191.254 443.254 191.524 443.987 191.228L443.601 190.894C443.344 191.755 443.28 192.616 443.331 193.49C443.383 194.351 443.537 195.238 443.987 196.035C444.205 196.433 444.552 196.793 444.976 197.011C445.401 197.217 445.85 197.32 446.313 197.32C447.239 197.307 448.087 196.909 448.755 196.292L448.344 196.022C448.177 196.523 448.164 197.05 448.344 197.551C448.524 198.052 448.909 198.438 449.346 198.682C449.77 198.926 450.246 199.093 450.76 199.119C451.261 199.145 451.75 199.029 452.2 198.849C453.961 198.027 455.169 196.536 456.274 195.084C456.827 194.338 457.328 193.567 457.829 192.796L458.202 192.218C458.292 192.025 458.575 191.794 458.292 191.858C458.189 192.282 458.022 192.719 457.868 193.156C457.572 194.017 457.251 194.904 457.174 195.829C457.135 196.292 457.148 196.767 457.354 197.191C457.521 197.59 457.893 197.911 458.318 198.091Z" fill="#263238"/>
<path d="M523.712 110.535L549.559 126.547C549.559 126.547 562.541 117.166 571.692 107.219C580.843 97.272 569.507 94.6118 552.13 100.215C534.74 105.805 523.712 110.535 523.712 110.535Z" fill="#3B82F6"/>
<path d="M531.051 108.35C536.771 111.576 542.285 115.213 547.709 118.939C549.238 119.993 550.755 121.086 552.233 122.217C552.271 122.242 552.246 122.319 552.194 122.294C549.367 120.623 546.616 118.837 543.853 117.063C541.077 115.29 538.313 113.49 535.588 111.627C534.046 110.586 532.517 109.532 531 108.453C530.923 108.414 530.974 108.311 531.051 108.35Z" fill="#263238"/>
<path d="M562.412 117.834C562.502 117.77 562.477 117.68 562.374 117.731C561.114 118.451 559.893 119.222 558.672 120.006C560.909 118.066 563.068 116.035 565.201 113.966C565.304 113.876 565.176 113.722 565.06 113.812C562.22 116.061 559.379 118.297 556.603 120.623C555.24 121.767 549.739 126.445 549.56 126.483C549.495 126.496 548.454 125.841 548.069 125.609C547.953 125.545 547.85 125.712 547.953 125.776C548.377 126.021 549.444 126.92 549.727 126.984C550.048 127.061 554.508 123.489 556.089 122.191C556.59 121.78 557.078 121.368 557.567 120.944C559.251 119.98 560.819 118.914 562.412 117.834Z" fill="#263238"/>
<path d="M580.599 109.404C576.55 110.11 569.7 104.944 566.075 100.472C565.831 100.163 565.703 96.4751 565.33 92.0029C565.098 89.2912 564.777 86.2712 564.276 83.5338L582.167 84.5876C582.167 84.5876 581.524 90.6149 582.411 95.3828C582.488 95.7812 582.591 96.141 582.732 96.488C582.745 96.5394 582.771 96.6037 582.797 96.6679C583.529 98.7241 586.305 108.414 580.599 109.404Z" fill="#FFEEEE"/>
<path d="M582.18 84.5749C582.18 84.5749 582.09 85.346 582.038 86.554C579.236 91.9516 574.018 98.7628 565.767 97.9788C565.664 96.4495 565.523 94.3291 565.343 91.9901C565.111 89.2785 564.79 86.2712 564.276 83.5211L582.18 84.5749Z" fill="#263238"/>
<path d="M581.319 59.9002C584.314 65.6191 584.404 83.7524 580.83 88.4688C575.638 95.3186 565.497 97.7861 559.263 91.1676C553.223 84.7548 553.518 61.1211 557.67 56.6617C563.788 50.1075 576.898 51.4569 581.319 59.9002Z" fill="#FFEEEE"/>
<path d="M565.587 73.5741C565.6 73.5227 565.677 73.6255 565.677 73.6769C565.651 74.8978 565.831 76.2986 566.936 76.697C566.975 76.7098 566.962 76.7741 566.923 76.7612C565.574 76.5942 565.368 74.7179 565.587 73.5741Z" fill="#263238"/>
<path d="M566.666 72.289C568.633 72.1219 568.826 76.0544 567.001 76.2086C565.214 76.3628 565.021 72.4303 566.666 72.289Z" fill="#263238"/>
<path d="M558.89 74.1781C558.877 74.1267 558.8 74.2424 558.8 74.2938C558.929 75.5146 558.865 76.9283 557.785 77.4038C557.746 77.4166 557.759 77.4809 557.798 77.4681C559.134 77.1853 559.199 75.309 558.89 74.1781Z" fill="#263238"/>
<path d="M557.708 72.9829C555.741 72.9701 555.857 76.9155 557.682 76.9283C559.481 76.9283 559.366 72.9958 557.708 72.9829Z" fill="#263238"/>
<path d="M568.132 70.3998C567.592 70.297 567.103 70.1042 566.576 69.9372C565.985 69.7572 565.497 69.6673 565.085 69.1661C564.867 68.8962 564.931 68.3821 565.175 68.1508C565.741 67.5982 566.525 67.6368 567.245 67.8295C568.029 68.0352 568.581 68.395 569.057 69.0504C569.52 69.7058 568.851 70.554 568.132 70.3998Z" fill="#263238"/>
<path d="M556.05 71.1066C556.59 70.9781 557.065 70.7725 557.579 70.5926C558.171 70.387 558.659 70.2842 559.045 69.7701C559.25 69.4874 559.173 68.9862 558.929 68.7548C558.351 68.2279 557.567 68.2922 556.847 68.5107C556.076 68.742 555.536 69.1275 555.073 69.7958C554.636 70.4512 555.343 71.2737 556.05 71.1066Z" fill="#263238"/>
<path d="M567.874 84.8833C567.591 85.1789 567.322 85.5901 566.885 85.6544C566.46 85.7058 565.959 85.5387 565.561 85.4102C565.522 85.3973 565.484 85.4359 565.509 85.4745C565.843 85.9242 566.525 86.1813 567.09 86.0656C567.643 85.9371 567.887 85.4487 568.003 84.9347C568.016 84.8576 567.926 84.8447 567.874 84.8833Z" fill="#263238"/>
<path d="M566.422 81.2978C565.792 82.3901 564.816 83.0199 563.736 83.2769C563.26 83.3925 562.746 83.444 562.245 83.4183C562.142 83.4183 562.052 83.4182 561.962 83.4054C561.872 83.3925 561.795 83.3925 561.692 83.3797C561.551 83.3668 561.461 83.2512 561.435 83.1227V83.1098C561.435 83.0713 561.435 83.0327 561.435 82.9813C561.435 82.9813 561.435 82.9813 561.435 82.9684V82.8656C561.358 81.9275 561.384 80.501 561.384 80.501C561.05 80.6938 559.34 81.5676 559.34 81.0664C559.379 76.9926 559.43 72.456 560.33 68.4207C560.356 68.2922 560.561 68.305 560.549 68.4464C560.664 72.3661 560.086 76.2729 560.137 80.2054C560.69 79.9612 561.577 79.5243 562.065 79.5114C562.207 79.5371 561.975 82.2745 562.039 82.6986C562.039 82.6986 562.039 82.7114 562.052 82.7371C563.646 82.8656 564.803 82.3259 566.281 81.195C566.384 81.1178 566.487 81.195 566.422 81.2978Z" fill="#263238"/>
<path d="M562.772 82.917C562.772 82.917 563.659 83.9966 564.816 84.3435C565.24 84.4721 565.702 84.5106 566.165 84.3564C567.129 84.048 567.103 83.1612 566.885 82.403C566.705 81.7861 566.397 81.2592 566.397 81.2592C566.397 81.2592 565.047 82.66 562.772 82.917Z" fill="#263238"/>
<path d="M564.829 84.3564C565.253 84.4849 565.715 84.5235 566.178 84.3693C567.142 84.0608 567.116 83.1741 566.898 82.4158C565.857 82.57 564.867 83.3283 564.829 84.3564Z" fill="#FF9CBD"/>
<path d="M553.762 65.0151C560.78 68.6649 568.813 60.8769 568.813 60.8769C571.512 65.6833 576.499 64.4625 576.499 64.4625C576.499 64.4625 579.108 75.2705 581.987 74.8978C586.383 74.3323 585.933 59.232 584.185 56.4561C582.437 53.693 578.62 53.3846 578.62 53.3846C578.62 53.3846 578.067 51.1356 575.098 49.3878C571.808 47.4473 561.821 51.8167 561.821 51.8167C561.821 51.8167 560.87 49.9661 558.724 48.5525C557.361 47.6529 555.755 48.0641 554.855 49.3878C555.446 50.0432 555.935 50.9171 556.243 51.9581C557.156 55.1067 554.534 55.4151 554.199 52.5107C554.058 51.2127 554.341 50.146 554.855 49.3878C553.325 47.64 551.14 47.2802 549.984 48.4497C547.876 50.5958 547.927 61.9822 553.762 65.0151Z" fill="#263238"/>
<path d="M579.622 75.2191C579.622 75.2191 582.642 68.8576 585.47 69.8472C588.285 70.8367 586.678 79.5757 583.838 81.2207C580.997 82.8528 579.429 80.2568 579.429 80.2568L579.622 75.2191Z" fill="#FFEEEE"/>
<path d="M584.943 72.3532C584.994 72.3404 585.007 72.4046 584.969 72.4303C582.989 73.6512 582.192 75.8102 581.755 77.9821C582.257 77.0954 583.041 76.5171 584.223 77.0954C584.287 77.1211 584.249 77.2239 584.185 77.2239C583.285 77.1853 582.681 77.4424 582.205 78.2391C581.871 78.8046 581.691 79.4729 581.485 80.0897C581.421 80.2954 581.061 80.2568 581.087 80.0255C581.087 80.0126 581.087 79.9869 581.1 79.9741C580.599 77.2624 582.077 73.1114 584.943 72.3532Z" fill="#263238"/>
<path d="M650.171 35.2256C648.642 49.799 635.596 60.3757 621.021 58.8592C615.134 58.2424 609.89 55.7492 605.842 52.0095L592.565 53.9629L599.21 42.4866C597.603 38.5669 596.922 34.1975 597.385 29.7123C598.914 15.1389 611.96 4.56221 626.535 6.07867C641.11 7.59513 651.688 20.6521 650.171 35.2256Z" fill="white"/>
<path d="M650.171 35.2256C649.618 40.0706 647.845 44.8127 644.812 48.681C644.118 49.6962 643.218 50.5316 642.408 51.444C641.483 52.2408 640.622 53.1275 639.606 53.8087C637.665 55.2994 635.48 56.4689 633.205 57.3685C630.943 58.3195 628.501 58.7821 626.059 59.0777C624.825 59.142 623.604 59.2576 622.371 59.142C621.137 59.1163 619.916 58.9878 618.695 58.7564C613.836 57.8826 609.235 55.6079 605.572 52.2794L605.88 52.3822L592.616 54.4127L591.652 54.5669L592.141 53.7187L598.747 42.2167L598.721 42.6665C595.508 35.0971 596.228 26.0754 600.354 19.02C602.41 15.4859 605.276 12.4401 608.669 10.1654C612.05 7.89073 615.983 6.46423 619.993 5.91162C624.016 5.37186 628.154 5.74455 631.997 7.01684C635.827 8.30197 639.349 10.4739 642.228 13.2883C648.089 18.8786 651.032 27.232 650.171 35.2256ZM650.171 35.2256C650.981 27.232 647.973 18.9301 642.112 13.4297C639.208 10.6795 635.686 8.59755 631.882 7.38952C628.077 6.19435 624.003 5.91162 620.083 6.50278C616.163 7.10679 612.371 8.559 609.119 10.8337C605.88 13.1084 603.156 16.077 601.176 19.4955C599.171 22.9011 598.117 26.8079 597.809 30.7276C597.565 34.6601 598.207 38.6312 599.673 42.281L599.762 42.5123L599.634 42.7308L592.95 54.1814L592.475 53.4874L605.765 51.6239L605.945 51.5982L606.073 51.7267C609.582 55.0295 614.029 57.3299 618.785 58.2681C619.967 58.5123 621.175 58.6536 622.383 58.705C623.592 58.8336 624.8 58.7436 626.021 58.705C628.424 58.4609 630.841 58.0496 633.103 57.15C635.378 56.3018 637.575 55.1838 639.503 53.7059C640.519 53.0247 641.38 52.1637 642.305 51.3669C643.115 50.4673 644.015 49.632 644.722 48.6296C647.781 44.787 649.58 40.0706 650.171 35.2256Z" fill="#263238"/>
<path d="M620.661 47.6014L609.338 36.1252L613.142 32.3597L619.762 39.0681L633.514 17.5035L638.025 20.3822L620.661 47.6014Z" fill="#3B82F6"/>
</svg>
