<svg width="176" height="117" viewBox="0 0 176 117" fill="none" xmlns="http://www.w3.org/2000/svg">
<path d="M174.497 105.173V108.881C174.497 110.773 173.812 112.504 172.673 113.85H132.351V105.173H174.497Z" fill="white"/>
<path d="M174.497 105.173V108.881C174.497 110.773 173.812 112.504 172.673 113.85H132.351V105.173H174.497Z" stroke="black" stroke-width="1.7819" stroke-miterlimit="10" stroke-linecap="round" stroke-linejoin="round"/>
<path d="M89.5903 58.9893V113.842H1.27637V61.3816C1.27637 58.6124 2.27635 56.0817 3.93017 54.1202C5.99936 51.6664 9.08393 50.1125 12.5454 50.1125H78.6674C83.9288 50.1125 88.3441 53.7202 89.5826 58.5893C89.5903 58.7278 89.5903 58.8586 89.5903 58.9893Z" fill="#2A5C8A"/>
<path d="M89.5903 58.9893V113.842H0.937988V58.9893C0.937988 56.2201 1.93797 53.6894 3.59179 51.7278C5.66099 49.274 8.74555 47.7202 12.207 47.7202H78.329C84.4212 47.7202 89.3826 52.5586 89.5903 58.597C89.5903 58.7277 89.5903 58.8585 89.5903 58.9893Z" stroke="black" stroke-width="1.7819" stroke-miterlimit="10" stroke-linecap="round" stroke-linejoin="round"/>
<path d="M42.9373 113.85H0.937988V89.9427C9.72246 66.2585 28.4068 63.1893 28.4068 63.1893C28.4068 63.1893 31.3682 70.2584 36.5297 76.6737C41.6988 83.089 39.0989 90.1581 41.7296 103.65C42.5911 108.096 42.9296 111.335 42.9373 113.85Z" fill="black"/>
<path d="M45.2604 50.1202V61.8662C38.4067 58.9816 35.2067 54.4125 33.7837 50.1202H45.2604Z" fill="black"/>
<path d="M33.1759 81.7736V113.85H22.9607C19.5915 113.85 16.4531 111.988 14.9685 108.965C14.3147 107.635 13.8378 106.019 13.7762 104.104C13.7762 103.958 13.7686 103.804 13.7686 103.658C13.7686 96.5887 13.7686 81.7812 13.7686 81.7812H33.1759V81.7736Z" fill="white"/>
<path d="M33.1759 113.85H22.9607C19.5915 113.85 16.4531 111.989 14.9685 108.965C14.3147 107.635 13.8378 106.019 13.7762 104.104C13.7762 103.958 13.7686 103.804 13.7686 103.658C13.7686 99.9503 13.7686 94.1119 13.7686 89.3966" stroke="black" stroke-width="1.7819" stroke-miterlimit="10" stroke-linecap="round" stroke-linejoin="round"/>
<path d="M34.2606 113.681H22.83C19.8224 113.681 16.9994 112.189 15.3532 109.673C15.3378 109.642 15.3148 109.612 15.2994 109.589C14.3917 108.173 13.9302 106.512 13.9302 104.819V83.5813L28.5684 83.7044L33.6683 83.7428L34.2606 113.681Z" fill="white"/>
<path d="M156.705 101.758C156.705 101.758 160.735 100.281 163.204 101.427C165.674 102.581 169.535 107.927 169.62 109.073C169.704 110.219 166.82 111.458 164.435 109.481C162.051 107.512 156.705 101.758 156.705 101.758Z" fill="white"/>
<path d="M156.705 101.758C156.705 101.758 160.735 100.281 163.204 101.427C165.674 102.581 169.535 107.927 169.62 109.073C169.704 110.219 166.82 111.458 164.435 109.481C162.051 107.512 156.705 101.758 156.705 101.758Z" stroke="black" stroke-width="1.7819" stroke-miterlimit="10" stroke-linecap="round" stroke-linejoin="round"/>
<path d="M149.466 101.919C149.466 101.919 151.359 98.6272 154.566 99.1195C157.774 99.6118 164.72 106.273 165.52 107.481C166.897 109.565 163.889 112.681 160.72 112.265C157.551 111.858 150.205 105.166 150.205 105.166L149.466 101.919Z" fill="white"/>
<path d="M149.466 101.919C149.466 101.919 151.359 98.6272 154.566 99.1195C157.774 99.6118 164.72 106.273 165.52 107.481C166.897 109.565 163.889 112.681 160.72 112.265C157.551 111.858 150.205 105.166 150.205 105.166L149.466 101.919Z" stroke="black" stroke-width="1.7819" stroke-miterlimit="10" stroke-linecap="round" stroke-linejoin="round"/>
<path d="M111.636 113.85H33.499L33.0067 101.181C24.6145 89.9964 11.2917 89.0118 11.2917 89.0118C11.1301 85.7196 15.2378 70.9198 27.2452 61.7046C33.4913 56.9124 43.6296 55.1893 51.9217 54.6432C59.5678 54.1432 65.6369 54.6355 65.6369 54.6355C70.8214 55.2047 75.4444 56.1739 79.5597 57.4662C119.721 70.1352 111.636 113.85 111.636 113.85Z" fill="#2A5C8A"/>
<path d="M111.636 113.85H33.499L33.0067 101.181C24.6145 89.9964 11.2917 89.0118 11.2917 89.0118C11.1301 85.7196 15.2378 70.9198 27.2452 61.7046C33.4913 56.9124 43.6296 55.1893 51.9217 54.6432C59.5678 54.1432 65.6369 54.6355 65.6369 54.6355C70.8214 55.2047 75.4444 56.1739 79.5597 57.4662C119.721 70.1352 111.636 113.85 111.636 113.85Z" stroke="black" stroke-width="1.7819" stroke-miterlimit="10" stroke-linecap="round" stroke-linejoin="round"/>
<path d="M89.5902 103.65C89.5902 103.65 88.1133 112.042 88.1133 113.85H132.689L146.343 107.104C146.343 107.104 153.251 111.712 155.72 112.365C155.72 112.365 160.82 113.188 159.666 107.927C159.666 107.927 147.412 98.3041 144.943 97.3195C142.474 96.3349 134.413 98.881 129.236 102.004L111.144 96.4965L89.5902 103.65Z" fill="white"/>
<path d="M89.5902 103.65C89.5902 103.65 88.1133 112.042 88.1133 113.85H132.689L146.343 107.104C146.343 107.104 153.251 111.712 155.72 112.365C155.72 112.365 160.82 113.188 159.666 107.927C159.666 107.927 147.412 98.3041 144.943 97.3195C142.474 96.3349 134.413 98.881 129.236 102.004L111.144 96.4965L89.5902 103.65Z" stroke="black" stroke-width="1.7819" stroke-miterlimit="10" stroke-linecap="round" stroke-linejoin="round"/>
<path d="M88.1133 89.5042L89.5902 103.65" stroke="black" stroke-width="1.7819" stroke-miterlimit="10" stroke-linecap="round" stroke-linejoin="round"/>
<path d="M79.5595 57.4662V63.1738C79.5595 65.7122 78.5903 68.166 76.8211 69.9737C74.6519 72.189 71.0673 74.5428 65.6444 74.5351C59.806 74.5198 56.3753 72.3813 54.4061 70.2506C52.7753 68.4891 51.9292 66.1353 51.9292 63.7353V54.6509C59.5752 54.1509 65.6444 54.6432 65.6444 54.6432C70.8289 55.197 75.4442 56.1662 79.5595 57.4662Z" fill="black"/>
<path d="M124.459 109.819C124.459 109.819 129.89 114.573 134.574 115.573C139.259 116.581 144.105 113.25 143.782 110.889C143.459 108.519 130.705 105.95 130.705 105.95L124.459 109.819Z" fill="white"/>
<path d="M126.451 111.396C128.459 112.873 131.659 114.95 134.574 115.581C139.259 116.588 144.105 113.258 143.782 110.896C143.589 109.489 138.982 108.004 135.282 107.035" stroke="black" stroke-width="1.7819" stroke-miterlimit="10" stroke-linecap="round" stroke-linejoin="round"/>
<path d="M74.5446 47.7279V61.9507C74.5446 63.4661 73.8216 64.9045 72.5754 65.7738C69.8908 67.643 64.6602 69.8891 58.1987 65.7045C56.8603 64.8353 56.0449 63.3507 56.0449 61.7584V47.7356H74.5446V47.7279Z" fill="white"/>
<path d="M74.5446 47.7279V61.9507C74.5446 63.4661 73.8216 64.9045 72.5754 65.7738C69.8908 67.643 64.6602 69.8891 58.1987 65.7045C56.8603 64.8353 56.0449 63.3507 56.0449 61.7584V47.7356H74.5446V47.7279Z" stroke="black" stroke-width="1.3365" stroke-miterlimit="10" stroke-linecap="round" stroke-linejoin="round"/>
<path d="M80.9134 33.5514C80.9134 45.0512 73.6366 53.7741 64.6598 53.7741C55.6831 53.7741 48.4062 45.0512 48.4062 33.5514C48.4062 22.0516 55.6831 10.9518 64.6598 10.9518C73.6366 10.9518 80.9134 22.0593 80.9134 33.5514Z" fill="white"/>
<path d="M80.9134 33.5514C80.9134 45.0512 73.6366 53.7741 64.6598 53.7741C55.6831 53.7741 48.4062 45.0512 48.4062 33.5514C48.4062 22.0516 55.6831 10.9518 64.6598 10.9518C73.6366 10.9518 80.9134 22.0593 80.9134 33.5514Z" stroke="black" stroke-width="1.7819" stroke-miterlimit="10" stroke-linecap="round" stroke-linejoin="round"/>
<path d="M58.4984 26.5823C57.7215 25.928 53.5369 29.2225 54.2523 30.1539C54.9677 31.0931 59.5907 27.506 58.4984 26.5823Z" fill="black"/>
<path d="M71.2293 35.6615H69.437V32.875C69.437 32.3823 69.837 31.9821 70.3293 31.9821C70.8216 31.9821 71.2216 32.3823 71.2216 32.875V35.6615H71.2293Z" fill="black"/>
<path d="M58.5755 35.6615H56.7832V32.875C56.7832 32.3823 57.1832 31.9821 57.6755 31.9821C58.1678 31.9821 58.5678 32.3823 58.5678 32.875V35.6615H58.5755Z" fill="black"/>
<path d="M69.1982 35.659C69.1982 35.659 70.1751 34.8898 71.4751 35.659" stroke="black" stroke-width="1.3365" stroke-miterlimit="10" stroke-linecap="round" stroke-linejoin="round"/>
<path d="M69.1597 26.7516C69.8827 26.0357 74.3057 28.9916 73.6673 29.9846C73.0288 30.9699 68.1366 27.76 69.1597 26.7516Z" fill="black"/>
<path d="M58.814 35.659C58.814 35.659 57.8371 34.8898 56.5371 35.659" stroke="black" stroke-width="1.3365" stroke-miterlimit="10" stroke-linecap="round" stroke-linejoin="round"/>
<path d="M63.2908 38.1439C63.2908 38.1439 62.9139 40.0452 64.7677 39.8528C66.6215 39.6604 66.6676 37.6667 65.3369 37.6205" stroke="black" stroke-width="1.3365" stroke-miterlimit="10" stroke-linecap="round" stroke-linejoin="round"/>
<path d="M84.8367 29.413C88.2213 31.1129 87.2367 39.7128 80.4214 39.0897" stroke="black" stroke-width="1.7819" stroke-miterlimit="10" stroke-linecap="round" stroke-linejoin="round"/>
<path d="M81.106 34.8128C81.106 34.8128 82.8521 33.0513 84.4059 35.2205" stroke="black" stroke-width="1.7819" stroke-miterlimit="10" stroke-linecap="round" stroke-linejoin="round"/>
<path d="M66.9676 49.3243C66.9676 49.3243 64.56 45.745 60.1216 45.9297C60.1216 45.9297 63.3292 42.1656 66.5138 44.2593C68.5291 45.591 66.9676 49.3243 66.9676 49.3243Z" fill="black"/>
<path d="M66.9676 49.3243C66.9676 49.3243 64.56 45.745 60.1216 45.9297C60.1216 45.9297 63.3292 42.1656 66.5138 44.2593C68.5291 45.591 66.9676 49.3243 66.9676 49.3243Z" stroke="black" stroke-width="1.7819" stroke-miterlimit="10" stroke-linecap="round" stroke-linejoin="round"/>
<path d="M83.0289 26.3283C82.9212 26.6053 82.8135 26.8514 82.7135 27.0822C82.3827 27.8052 82.0597 28.3283 81.8058 28.6898C81.4904 29.136 81.2751 29.336 81.2751 29.336C81.1443 29.3975 81.0212 29.4514 80.8904 29.5052C80.6904 29.5975 80.4828 29.6744 80.2828 29.7591C80.1366 29.8206 79.9905 29.8744 79.852 29.9206C79.7212 29.9667 79.5905 30.0206 79.4597 30.0591C64.3292 35.259 53.5601 18.4746 53.5601 18.4746C53.4832 26.0668 49.5448 30.4821 48.0602 31.8821C47.8372 32.0898 47.6756 32.2359 47.5833 32.3052C47.5372 32.3436 47.5064 32.3667 47.5064 32.3667C47.2141 32.0513 46.9372 31.7282 46.6756 31.4129C46.6218 31.3436 46.5603 31.2744 46.5064 31.2052C46.191 30.8129 45.891 30.4206 45.6064 30.0206C45.1526 29.3821 44.7449 28.736 44.3834 28.0975C44.0603 27.5283 43.7757 26.9591 43.5295 26.3899C42.7372 24.5822 42.2988 22.7976 42.168 21.0592C41.3834 10.7209 51.3525 2.09799 60.66 1.25954C73.2367 0.121096 75.6982 5.97483 75.6982 5.97483C75.6982 5.97483 75.7059 5.97484 75.7213 5.96715C77.3751 5.55177 84.2135 7.17482 84.4058 16.7362C84.4904 21.2977 83.7904 24.3668 83.0289 26.3283Z" fill="#3A3A3A"/>
<path d="M83.0289 26.3283C82.9212 26.6053 82.8135 26.8514 82.7135 27.0822C82.3827 27.8052 82.0597 28.3283 81.8058 28.6898C81.4904 29.136 81.2751 29.336 81.2751 29.336C81.1443 29.3975 81.0212 29.4514 80.8904 29.5052C80.6904 29.5975 80.4828 29.6744 80.2828 29.7591C80.1366 29.8206 79.9905 29.8744 79.852 29.9206C79.7212 29.9667 79.5905 30.0206 79.4597 30.0591C64.3292 35.259 53.5601 18.4746 53.5601 18.4746C53.4832 26.0668 49.5448 30.4821 48.0602 31.8821C47.8372 32.0898 47.6756 32.2359 47.5833 32.3052C47.5372 32.3436 47.5064 32.3667 47.5064 32.3667C47.2141 32.0513 46.9372 31.7282 46.6756 31.4129C46.6218 31.3436 46.5603 31.2744 46.5064 31.2052C46.191 30.8129 45.891 30.4206 45.6064 30.0206C45.1526 29.3821 44.7449 28.736 44.3834 28.0975C44.0603 27.5283 43.7757 26.9591 43.5295 26.3899C42.7372 24.5822 42.2988 22.7976 42.168 21.0592C41.3834 10.7209 51.3525 2.09799 60.66 1.25954C73.2367 0.121096 75.6982 5.97483 75.6982 5.97483C75.6982 5.97483 75.7059 5.97484 75.7213 5.96715C77.3751 5.55177 84.2135 7.17482 84.4058 16.7362C84.4904 21.2977 83.7904 24.3668 83.0289 26.3283Z" stroke="black" stroke-width="1.7819" stroke-miterlimit="10" stroke-linecap="round" stroke-linejoin="round"/>
<path d="M58.8371 59.5662C58.014 66.143 53.0834 83.0889 46.3373 97.8886C39.5913 112.696 34.3298 113.681 34.3298 113.681H22.83C19.8224 113.681 16.9994 112.188 15.3532 109.673C15.3378 109.642 15.3148 109.611 15.2994 109.588C14.3917 108.173 13.9302 106.512 13.9302 104.819V103.181C18.3301 97.1656 23.6839 90.0811 28.5684 83.7042C36.0836 73.8813 42.4682 65.7353 42.4682 65.7353C42.4682 65.7353 42.9605 57.9201 42.4682 56.6047C41.9759 55.2893 37.3682 48.3818 36.4913 46.4049C35.6144 44.428 34.8221 33.7358 35.8913 31.5205C36.9606 29.2975 38.8528 30.2897 38.8528 30.2897L42.222 36.2127C42.222 36.2127 45.7604 31.8513 47.3219 29.7974C48.8834 27.7436 51.8449 27.9898 52.5064 31.5282C53.168 35.0666 50.368 37.3666 50.4526 38.5204C50.5373 39.6742 50.7834 42.1357 54.4833 46.3356C58.1833 50.5356 59.6525 52.9894 58.8371 59.5662Z" fill="white"/>
<path d="M17.8993 97.8117C21.3531 93.181 25.0838 88.2657 28.5684 83.7042C36.0836 73.8813 42.4682 65.7353 42.4682 65.7353C42.4682 65.7353 42.9605 57.9201 42.4682 56.6047C41.9759 55.2893 37.3682 48.3818 36.4913 46.4049C35.6144 44.428 34.8221 33.7358 35.8913 31.5205C36.9606 29.2975 38.8528 30.2897 38.8528 30.2897L42.222 36.2127C42.222 36.2127 45.7604 31.8513 47.3219 29.7974C48.8834 27.7436 51.8449 27.9898 52.5064 31.5282C53.168 35.0666 50.368 37.3666 50.4526 38.5204C50.5373 39.6742 50.7834 42.1357 54.4833 46.3356C58.1833 50.5356 59.6679 52.9971 58.8448 59.5739C58.0217 66.1507 53.0911 83.0966 46.345 97.8963C39.599 112.704 34.3375 113.688 34.3375 113.688H22.83C19.8224 113.688 16.9994 112.196 15.3532 109.681C15.3378 109.65 15.3148 109.619 15.2994 109.596C14.3917 108.181 13.9302 106.519 13.9302 104.827V103.189" stroke="black" stroke-width="1.7819" stroke-miterlimit="10" stroke-linecap="round" stroke-linejoin="round"/>
<path d="M41.4142 45.0127C41.4142 45.0127 38.7835 41.2281 38.4527 38.5974C38.1219 35.9667 38.3527 28.213 39.0912 26.613C39.7296 25.2284 42.1757 23.9746 43.8218 25.6207C44.2834 26.0822 44.5141 26.7361 44.4911 27.3899C44.4065 29.9899 44.1526 38.2589 44.5218 39.4974C44.9526 40.9743 46.5603 42.2127 46.5603 42.2127L41.4142 45.0127Z" fill="white"/>
<path d="M41.4142 45.0127C41.4142 45.0127 38.7835 41.2281 38.4527 38.5974C38.1219 35.9667 38.3527 28.213 39.0912 26.613C39.7296 25.2284 42.1757 23.9746 43.8218 25.6207C44.2834 26.0822 44.5141 26.7361 44.4911 27.3899C44.4065 29.9899 44.1526 38.2589 44.5218 39.4974C44.9526 40.9743 46.5603 42.2127 46.5603 42.2127" stroke="black" stroke-width="1.7819" stroke-miterlimit="10" stroke-linecap="round" stroke-linejoin="round"/>
<path d="M34.2606 113.681H22.83C19.8224 113.681 16.9994 112.189 15.3532 109.673C15.3378 109.642 15.3148 109.612 15.2994 109.589C14.3917 108.173 13.9302 106.512 13.9302 104.819V89.3889" stroke="black" stroke-width="1.7819" stroke-miterlimit="10" stroke-linecap="round" stroke-linejoin="round"/>
</svg>
