<svg width="142" height="127" viewBox="0 0 142 127" fill="none" xmlns="http://www.w3.org/2000/svg">
<path d="M129.428 123.034L70.7136 121.48L11.9992 123.034C2.66086 107.165 10.5761 84.8888 28.245 66.8122C37.2064 57.6431 48.4139 53.8047 57.283 52.2509C63.3291 51.1893 68.2905 51.1893 70.7136 51.2816C72.9443 51.197 77.3365 51.1893 82.7441 52.0201C91.8132 53.4124 103.744 57.1585 113.182 66.8122C130.851 84.8888 138.774 107.165 129.428 123.034Z" fill="#2A5C8A"/>
<path d="M129.428 123.034L70.7136 121.48L11.9992 123.034C2.66086 107.165 10.5761 84.8888 28.245 66.8122C37.2064 57.6431 48.4139 53.8047 57.283 52.2509C63.3291 51.1893 68.2905 51.1893 70.7136 51.2816C72.9443 51.197 77.3365 51.1893 82.7441 52.0201C91.8132 53.4124 103.744 57.1585 113.182 66.8122C130.851 84.8888 138.774 107.165 129.428 123.034Z" stroke="black" stroke-width="0.9778" stroke-miterlimit="10" stroke-linecap="round" stroke-linejoin="round"/>
<path d="M10.2764 94.8117C10.2764 94.8117 16.0916 88.8118 23.4607 91.0348C30.6145 93.1886 35.3298 102.242 34.599 107.25C34.2221 109.865 30.3914 111.288 26.3299 108.173C22.2762 105.058 10.2764 94.8117 10.2764 94.8117Z" fill="#1F1F1F"/>
<path d="M10.2764 94.8117C10.2764 94.8117 16.0916 88.8118 23.4607 91.0348C30.6145 93.1886 35.3298 102.242 34.599 107.25C34.2221 109.865 30.3914 111.288 26.3299 108.173C22.2762 105.058 10.2764 94.8117 10.2764 94.8117Z" stroke="black" stroke-width="0.9778" stroke-miterlimit="10" stroke-linecap="round" stroke-linejoin="round"/>
<path d="M131.136 94.8117C131.136 94.8117 125.321 88.8118 117.952 91.0348C110.798 93.1886 106.082 102.242 106.813 107.25C107.19 109.865 111.021 111.288 115.082 108.173C119.144 105.058 131.136 94.8117 131.136 94.8117Z" fill="#1F1F1F"/>
<path d="M131.136 94.8117C131.136 94.8117 125.321 88.8118 117.952 91.0348C110.798 93.1886 106.082 102.242 106.813 107.25C107.19 109.865 111.021 111.288 115.082 108.173C119.144 105.058 131.136 94.8117 131.136 94.8117Z" stroke="black" stroke-width="0.9778" stroke-miterlimit="10" stroke-linecap="round" stroke-linejoin="round"/>
<path d="M72.3137 61.5892C71.7522 61.6276 71.1599 61.6507 70.5368 61.6507C70.0445 61.6507 69.5676 61.643 69.1137 61.6122C56.7216 60.9892 57.2832 52.2508 57.2832 52.2508C63.3292 51.1893 68.2907 51.1893 70.7137 51.2816C72.9445 51.197 77.3367 51.1893 82.7443 52.0201C82.752 52.0201 84.252 60.7969 72.3137 61.5892Z" fill="#1F1F1F"/>
<path d="M77.7136 45.8511V55.0586C77.7136 55.0586 75.5444 58.0355 70.0445 58.0355C64.5445 58.0355 62.3677 55.0586 62.3677 55.0586V45.8511H77.7136Z" fill="white"/>
<path d="M77.7136 45.8511V55.0586C77.7136 55.0586 75.5444 58.0355 70.0445 58.0355C64.5445 58.0355 62.3677 55.0586 62.3677 55.0586V45.8511H77.7136Z" stroke="black" stroke-width="0.9778" stroke-miterlimit="10" stroke-linecap="round" stroke-linejoin="round"/>
<path d="M85.1135 31.4819C85.1135 42.3971 78.2059 50.6816 69.6829 50.6816C61.16 50.6816 54.2524 42.3971 54.2524 31.4819C54.2524 20.5667 61.16 10.0208 69.6829 10.0208C78.2059 10.0208 85.1135 20.559 85.1135 31.4819Z" fill="white"/>
<path d="M85.1135 31.4819C85.1135 42.3971 78.2059 50.6816 69.6829 50.6816C61.16 50.6816 54.2524 42.3971 54.2524 31.4819C54.2524 20.5667 61.16 10.0208 69.6829 10.0208C78.2059 10.0208 85.1135 20.559 85.1135 31.4819Z" stroke="black" stroke-width="0.9778" stroke-miterlimit="10" stroke-linecap="round" stroke-linejoin="round"/>
<path d="M88.152 27.2513C88.052 27.5359 87.952 27.7898 87.8443 28.0282C87.529 28.7744 87.2213 29.3128 86.9828 29.682C86.6828 30.1436 86.4751 30.3436 86.4751 30.3436C86.352 30.4051 86.229 30.4589 86.1136 30.5128C85.9213 30.6051 85.729 30.6897 85.529 30.7743C85.3905 30.8359 85.2521 30.8897 85.1136 30.9435C84.9906 30.9974 84.8674 31.0435 84.7444 31.0897C70.3062 36.4588 60.0294 19.1284 60.0294 19.1284C59.9525 26.9667 56.1987 31.5358 54.7834 32.9743C54.5757 33.1897 54.4141 33.3358 54.3295 33.4127C54.2834 33.4589 54.2526 33.4743 54.2526 33.4743C53.9757 33.1435 53.7141 32.8127 53.4603 32.482C53.4065 32.4051 53.3526 32.3358 53.2988 32.2666C52.9988 31.8589 52.7065 31.4512 52.4449 31.0435C52.0065 30.382 51.6219 29.7205 51.2757 29.059C50.968 28.4667 50.6911 27.8821 50.4604 27.2898C49.6988 25.4283 49.2834 23.5821 49.1604 21.7899C48.4142 11.1131 57.9295 2.20557 66.8062 1.33635C78.8137 0.159446 81.1598 6.21319 81.1598 6.21319C81.1598 6.21319 81.1675 6.21319 81.1829 6.2055C82.7598 5.78243 89.2905 7.45163 89.4674 17.3284C89.5443 22.0514 88.8751 25.2206 88.152 27.2513Z" fill="#3A3A3A"/>
<path d="M52.8909 34.8126L50.8833 34.3203L51.4987 31.7973C51.2602 30.0434 49.9833 18.4513 56.0986 11.3284C59.1832 7.73613 63.6215 5.91309 69.2907 5.91309C75.6752 5.91309 80.5289 7.92844 83.7135 11.8976C89.998 19.7359 87.4365 32.2973 87.1211 33.7049L85.1058 33.2588C85.3981 31.9511 87.7827 20.2744 82.0981 13.1899C79.3213 9.7361 75.0137 7.98228 69.2907 7.98228C64.26 7.98228 60.3524 9.55918 57.6755 12.6745C51.8064 19.4975 53.5602 31.5742 53.5832 31.6973L53.614 31.8973L52.8909 34.8126Z" fill="white"/>
<path d="M52.8909 34.8126L50.8833 34.3203L51.4987 31.7973C51.2602 30.0434 49.9833 18.4513 56.0986 11.3284C59.1832 7.73613 63.6215 5.91309 69.2907 5.91309C75.6752 5.91309 80.5289 7.92844 83.7135 11.8976C89.998 19.7359 87.4365 32.2972 87.1211 33.7049L85.1058 33.2588C85.3981 31.9511 87.7827 20.2744 82.0981 13.1899C79.3213 9.7361 75.0137 7.98228 69.2907 7.98228C64.26 7.98228 60.3524 9.55918 57.6755 12.6745C51.8064 19.4975 53.5602 31.5742 53.5832 31.6973L53.614 31.8973L52.8909 34.8126Z" stroke="black" stroke-width="0.9778" stroke-miterlimit="10" stroke-linecap="round" stroke-linejoin="round"/>
<path d="M73.8057 28.7129C73.5442 29.1671 76.8518 30.5449 77.3287 30.0677C77.8056 29.5904 74.1826 28.074 73.8057 28.7129Z" fill="black"/>
<path d="M74.7444 35.1378C74.406 35.1378 74.1367 34.8684 74.1367 34.5297V33.0363C74.1367 32.6976 74.406 32.4282 74.7444 32.4282C75.0829 32.4282 75.3521 32.6976 75.3521 33.0363V34.5297C75.3521 34.8607 75.0752 35.1378 74.7444 35.1378Z" fill="black"/>
<path d="M65.4217 35.1378C65.0832 35.1378 64.814 34.8684 64.814 34.5297V33.0363C64.814 32.6976 65.0832 32.4282 65.4217 32.4282C65.7601 32.4282 66.0293 32.6976 66.0293 33.0363V34.5297C66.0293 34.8607 65.7524 35.1378 65.4217 35.1378Z" fill="black"/>
<path d="M73.9058 35.1359C73.9058 35.1359 74.6211 34.5744 75.5827 35.1359" stroke="black" stroke-width="0.9778" stroke-miterlimit="10" stroke-linecap="round" stroke-linejoin="round"/>
<path d="M68.4678 43.5998C68.4678 43.5998 73.0292 43.1919 75.3754 39.8049" stroke="black" stroke-width="0.9778" stroke-miterlimit="10" stroke-linecap="round" stroke-linejoin="round"/>
<path d="M66.3522 28.7129C66.6138 29.1671 63.3061 30.5449 62.8292 30.0677C62.3523 29.5904 65.983 28.074 66.3522 28.7129Z" fill="black"/>
<path d="M66.2599 35.1359C66.2599 35.1359 65.5445 34.5744 64.583 35.1359" stroke="black" stroke-width="0.9778" stroke-miterlimit="10" stroke-linecap="round" stroke-linejoin="round"/>
<path d="M68.6445 35.836C68.6445 35.836 68.2906 37.645 70.0444 37.4602C71.7983 37.2832 71.8444 35.3819 70.5829 35.3357" stroke="black" stroke-width="0.9778" stroke-miterlimit="10" stroke-linecap="round" stroke-linejoin="round"/>
<path d="M22.1994 91.0656C33.0376 94.5578 31.853 118.081 25.5378 123.034H2.25354C2.25354 123.034 1.24586 109.196 5.39964 101.25C9.55341 93.3117 16.8764 89.3502 22.1994 91.0656Z" fill="white"/>
<path d="M22.1993 91.0656C33.0376 94.5578 31.853 118.081 25.5378 123.034H2.25354C2.25354 123.034 1.24586 109.196 5.39964 101.25C9.55341 93.3117 16.8764 89.3502 22.1993 91.0656Z" stroke="black" stroke-width="0.9778" stroke-miterlimit="10" stroke-linecap="round" stroke-linejoin="round"/>
<path d="M9.7915 123.034H22.8605C23.8682 125.619 28.8066 125.773 33.6834 123.034C33.7142 123.019 33.7373 123.004 33.768 122.988C35.2603 122.142 36.1757 120.55 36.1757 118.834V118.304C36.1757 116.588 35.2603 114.996 33.768 114.15C33.7603 114.142 33.7449 114.134 33.7373 114.134C32.6527 113.527 29.2681 114.334 27.4451 113.865C25.6451 113.396 22.6297 111.242 21.7298 110.319C21.7144 110.304 21.7067 110.296 21.6913 110.281C20.8375 109.381 17.9914 106.858 13.9222 109.073C11.2222 110.527 10.1838 118.073 9.7915 123.034Z" fill="white"/>
<path d="M9.7915 123.034H22.8605C23.8682 125.619 28.8066 125.773 33.6834 123.034C33.7142 123.019 33.7373 123.004 33.768 122.988C35.2603 122.142 36.1757 120.55 36.1757 118.834V118.304C36.1757 116.588 35.2603 114.996 33.768 114.15C33.7603 114.142 33.7449 114.134 33.7373 114.134C32.6527 113.527 29.2681 114.334 27.4451 113.865C25.6451 113.396 22.6297 111.242 21.7298 110.319C21.7144 110.304 21.7067 110.296 21.6913 110.281C20.8375 109.381 17.9914 106.858 13.9222 109.073C11.2222 110.527 10.1838 118.073 9.7915 123.034Z" stroke="black" stroke-width="0.9778" stroke-miterlimit="10" stroke-linecap="round" stroke-linejoin="round"/>
<path d="M33.914 122.904C33.8371 122.95 33.7602 122.988 33.6832 123.034C28.7987 125.773 23.868 125.619 22.8603 123.034C22.6142 122.419 22.5988 121.657 22.8603 120.765C24.4449 115.419 29.9449 115.688 29.9449 115.688" stroke="black" stroke-width="0.9778" stroke-miterlimit="10" stroke-linecap="round" stroke-linejoin="round"/>
<path d="M119.236 91.0656C108.397 94.5578 109.582 118.081 115.897 123.034H139.182C139.182 123.034 140.189 109.196 136.036 101.25C131.882 93.3117 124.559 89.3502 119.236 91.0656Z" fill="white"/>
<path d="M119.236 91.0656C108.397 94.5578 109.582 118.081 115.897 123.034H139.182C139.182 123.034 140.189 109.196 136.036 101.25C131.882 93.3117 124.559 89.3502 119.236 91.0656Z" stroke="black" stroke-width="0.9778" stroke-miterlimit="10" stroke-linecap="round" stroke-linejoin="round"/>
<path d="M131.644 123.034H118.582C117.575 125.619 112.636 125.773 107.759 123.034C107.729 123.019 107.705 123.004 107.675 122.988C106.182 122.142 105.267 120.55 105.267 118.834V118.304C105.267 116.588 106.182 114.996 107.675 114.15C107.682 114.142 107.698 114.134 107.705 114.134C108.79 113.527 112.175 114.334 113.998 113.865C115.798 113.396 118.813 111.242 119.713 110.319C119.728 110.304 119.736 110.296 119.751 110.281C120.605 109.381 123.451 106.858 127.521 109.073C130.213 110.527 131.251 118.073 131.644 123.034Z" fill="white"/>
<path d="M131.644 123.034H118.582C117.575 125.619 112.636 125.773 107.759 123.034C107.729 123.019 107.705 123.004 107.675 122.988C106.182 122.142 105.267 120.55 105.267 118.834V118.304C105.267 116.588 106.182 114.996 107.675 114.15C107.682 114.142 107.698 114.134 107.705 114.134C108.79 113.527 112.175 114.334 113.998 113.865C115.798 113.396 118.813 111.242 119.713 110.319C119.728 110.304 119.736 110.296 119.751 110.281C120.605 109.381 123.451 106.858 127.521 109.073C130.213 110.527 131.251 118.073 131.644 123.034Z" stroke="black" stroke-width="0.9778" stroke-miterlimit="10" stroke-linecap="round" stroke-linejoin="round"/>
<path d="M111.49 115.688C111.49 115.688 116.99 115.419 118.574 120.765C118.836 121.657 118.82 122.419 118.574 123.034C117.566 125.619 112.628 125.773 107.751 123.034C107.674 122.988 107.597 122.95 107.521 122.904" stroke="black" stroke-width="0.9778" stroke-miterlimit="10" stroke-linecap="round" stroke-linejoin="round"/>
<path d="M136.528 123.557C136.528 123.557 139.282 125.088 140.382 121.434C141.651 117.219 139.536 108.935 137.282 108.481C135.028 108.027 133.759 111.281 133.759 111.281L136.528 123.557Z" fill="white"/>
<path d="M136.528 123.557C136.528 123.557 139.282 125.088 140.382 121.434C141.651 117.219 139.536 108.935 137.282 108.481C135.028 108.027 133.759 111.281 133.759 111.281L136.528 123.557Z" stroke="black" stroke-width="0.9778" stroke-miterlimit="10" stroke-linecap="round" stroke-linejoin="round"/>
<path d="M126.59 110.611C126.59 110.611 128.082 107.565 132.074 107.835C136.067 108.104 137.605 122.265 137.082 124.027C136.559 125.788 130.99 126.919 130.251 123.604C129.497 120.288 126.59 110.611 126.59 110.611Z" fill="white"/>
<path d="M126.59 110.611C126.59 110.611 128.082 107.565 132.074 107.835C136.067 108.104 137.605 122.265 137.082 124.027C136.559 125.788 130.99 126.919 130.251 123.604C129.497 120.288 126.59 110.611 126.59 110.611Z" stroke="black" stroke-width="0.9778" stroke-miterlimit="10" stroke-linecap="round" stroke-linejoin="round"/>
<path d="M130.897 123.034C130.844 123.588 130.728 124.042 130.551 124.38C129.121 127.08 123.267 127.004 121.913 123.034C121.89 122.965 121.875 122.904 121.851 122.834C121.005 119.927 120.151 113.773 119.721 110.311C119.736 110.296 119.744 110.288 119.759 110.273C120.613 109.373 123.459 106.85 127.528 109.065C128.867 110.658 131.297 119.119 130.897 123.034Z" fill="white"/>
<path d="M119.713 110.311C119.728 110.296 119.736 110.288 119.751 110.273C120.605 109.373 123.451 106.85 127.52 109.065C128.867 110.658 131.297 119.127 130.89 123.034C130.836 123.588 130.72 124.042 130.543 124.38C129.113 127.08 123.259 127.004 121.905 123.034C121.882 122.965 121.867 122.904 121.844 122.834C121.282 120.911 120.721 117.573 120.282 114.527" stroke="black" stroke-width="0.9778" stroke-miterlimit="10" stroke-linecap="round" stroke-linejoin="round"/>
<path d="M4.90708 123.557C4.90708 123.557 2.15328 125.088 1.05329 121.434C-0.215915 117.219 1.89946 108.935 4.15326 108.481C6.40707 108.027 7.67627 111.281 7.67627 111.281L4.90708 123.557Z" fill="white"/>
<path d="M4.90708 123.557C4.90708 123.557 2.15328 125.088 1.05329 121.434C-0.215915 117.219 1.89946 108.935 4.15326 108.481C6.40707 108.027 7.67627 111.281 7.67627 111.281L4.90708 123.557Z" stroke="black" stroke-width="0.9778" stroke-miterlimit="10" stroke-linecap="round" stroke-linejoin="round"/>
<path d="M14.8453 110.611C14.8453 110.611 13.353 107.565 9.36076 107.835C5.36852 108.104 3.83008 122.265 4.35315 124.027C4.87621 125.788 10.4454 126.919 11.1838 123.604C11.9223 120.288 14.8453 110.611 14.8453 110.611Z" fill="white"/>
<path d="M14.8453 110.611C14.8453 110.611 13.353 107.565 9.36076 107.835C5.36852 108.104 3.83008 122.265 4.35315 124.027C4.87621 125.788 10.4454 126.919 11.1838 123.604C11.9223 120.288 14.8453 110.611 14.8453 110.611Z" stroke="black" stroke-width="0.9778" stroke-miterlimit="10" stroke-linecap="round" stroke-linejoin="round"/>
<path d="M10.538 123.034C10.5919 123.588 10.7073 124.042 10.8842 124.38C12.3149 127.08 18.1687 127.004 19.5225 123.034C19.5456 122.965 19.561 122.904 19.584 122.834C20.4302 119.927 21.284 113.773 21.7148 110.311C21.6994 110.296 21.6917 110.288 21.6763 110.273C20.8225 109.373 17.9764 106.85 13.9072 109.065C12.5688 110.658 10.138 119.119 10.538 123.034Z" fill="white"/>
<path d="M21.7222 110.311C21.7068 110.296 21.6991 110.288 21.6837 110.273C20.8299 109.373 17.9838 106.85 13.9146 109.065C12.5685 110.658 10.1378 119.127 10.5455 123.034C10.5993 123.588 10.7147 124.042 10.8916 124.38C12.3224 127.08 18.1761 127.004 19.5299 123.034C19.553 122.965 19.5684 122.904 19.5915 122.834C20.1145 121.042 20.6376 118.011 21.0684 115.15" stroke="black" stroke-width="0.9778" stroke-miterlimit="10" stroke-linecap="round" stroke-linejoin="round"/>
<path d="M81.1443 6.22859C73.0214 -0.0866895 53.3371 -0.00208235 49.1526 21.8052C48.4064 11.1285 57.9216 2.22096 66.7984 1.35174C78.7982 0.182534 81.1443 6.22859 81.1443 6.22859Z" fill="white"/>
<path d="M88.152 27.2513C88.052 27.5359 87.952 27.7898 87.8443 28.0282C87.529 28.7744 87.2213 29.3128 86.9828 29.682C86.6828 30.1436 86.4751 30.3436 86.4751 30.3436C86.352 30.4051 86.229 30.4589 86.1136 30.5128C85.9213 30.6051 85.729 30.6897 85.529 30.7743C85.3905 30.8359 85.2521 30.8897 85.1136 30.9435C84.9906 30.9974 84.8674 31.0435 84.7444 31.0897C70.3062 36.4588 60.0294 19.1284 60.0294 19.1284C59.9525 26.9667 56.1987 31.5358 54.7834 32.9743C54.5757 33.1897 54.4141 33.3358 54.3295 33.4127C54.2834 33.4589 54.2526 33.4743 54.2526 33.4743C53.9757 33.1435 53.7141 32.8127 53.4603 32.482C53.4065 32.4051 53.3526 32.3358 53.2988 32.2666C52.9988 31.8589 52.7065 31.4512 52.4449 31.0435C52.0065 30.382 51.6219 29.7205 51.2757 29.059C50.968 28.4667 50.6911 27.8821 50.4604 27.2898C49.6988 25.4283 49.2834 23.5821 49.1604 21.7899C48.4142 11.1131 57.9295 2.20557 66.8062 1.33635C78.8137 0.159446 81.1598 6.21319 81.1598 6.21319C81.1598 6.21319 81.1675 6.21319 81.1829 6.2055C82.7598 5.78243 89.2905 7.45163 89.4674 17.3284C89.5443 22.0514 88.8751 25.2206 88.152 27.2513Z" stroke="black" stroke-width="0.9778" stroke-miterlimit="10" stroke-linecap="round" stroke-linejoin="round"/>
<path d="M86.3365 39.2357L85.3442 39.1511L86.4058 27.1051L89.5057 27.382C90.8749 27.5051 91.8826 28.7051 91.7595 30.0743L91.3211 35.0665C91.098 37.5819 88.8672 39.4587 86.3365 39.2357Z" fill="white"/>
<path d="M86.3366 39.2357L85.5443 39.1664C84.8982 39.1126 84.4136 38.5741 84.4136 37.928L84.4444 33.7358C84.4598 31.382 85.1444 29.082 86.4136 27.1051L87.4058 27.1897C87.3982 27.1897 86.3059 32.3435 86.3366 39.2357Z" fill="black"/>
<path d="M52.9294 39.228L53.9217 39.1357L52.8294 27.0897L49.7294 27.3743C48.3679 27.4974 47.3602 28.7051 47.4833 30.0666L47.9372 35.0588C48.1602 37.5895 50.3986 39.4587 52.9294 39.228Z" fill="white"/>
<path d="M86.3365 39.2357L85.3442 39.1511L86.4058 27.1051L89.5057 27.382C90.8749 27.5051 91.8826 28.7051 91.7595 30.0743L91.3211 35.0665C91.098 37.5819 88.8672 39.4587 86.3365 39.2357Z" stroke="black" stroke-width="0.9778" stroke-miterlimit="10" stroke-linecap="round" stroke-linejoin="round"/>
<path d="M52.9294 39.228L53.9217 39.1357L52.8294 27.0897L49.7294 27.3743C48.3679 27.4974 47.3602 28.7051 47.4833 30.0666L47.9372 35.0588C48.1602 37.5895 50.3986 39.4587 52.9294 39.228Z" stroke="black" stroke-width="0.9778" stroke-miterlimit="10" stroke-linecap="round" stroke-linejoin="round"/>
<path d="M52.9296 39.228L53.7219 39.1588C54.368 39.0972 54.8526 38.5588 54.8449 37.9126L54.8065 33.7204C54.7834 31.3666 54.0988 29.0666 52.8219 27.0974L51.8296 27.1897C51.8373 27.182 52.9373 32.3435 52.9296 39.228Z" fill="black"/>
<path d="M86.3366 39.2357L85.5443 39.1664C84.8982 39.1126 84.4136 38.5741 84.4136 37.928L84.4444 33.7358C84.4598 31.382 85.1444 29.082 86.4136 27.1051L87.4058 27.1897C87.3982 27.1897 86.3058 32.3435 86.3366 39.2357Z" stroke="black" stroke-width="0.9778" stroke-miterlimit="10" stroke-linecap="round" stroke-linejoin="round"/>
<path d="M52.9296 39.228L53.7219 39.1588C54.368 39.0972 54.8526 38.5588 54.8449 37.9126L54.8065 33.7204C54.7834 31.3666 54.0988 29.0666 52.8219 27.0974L51.8296 27.1897C51.8373 27.182 52.9373 32.3435 52.9296 39.228Z" stroke="black" stroke-width="0.9778" stroke-miterlimit="10" stroke-linecap="round" stroke-linejoin="round"/>
<path d="M103.705 120.088H37.3679L31.9911 79.6812C31.8526 78.6351 32.6603 77.712 33.7141 77.712H107.359C108.413 77.712 109.221 78.6428 109.082 79.6812L103.705 120.088Z" fill="#1F1F1F"/>
<path d="M103.705 120.088H37.3679L31.9911 79.6812C31.8526 78.6351 32.6603 77.712 33.7141 77.712H107.359C108.413 77.712 109.221 78.6428 109.082 79.6812L103.705 120.088Z" stroke="black" stroke-width="0.9778" stroke-miterlimit="10" stroke-linecap="round" stroke-linejoin="round"/>
<path d="M103.713 118.734H37.3755V123.037H103.713V118.734Z" fill="white"/>
<path d="M103.713 118.734H37.3755V123.037H103.713V118.734Z" stroke="black" stroke-width="0.9778" stroke-miterlimit="10" stroke-linecap="round" stroke-linejoin="round"/>
<path d="M69.1212 106.565C73.0848 106.565 76.2979 103.352 76.2979 99.3886C76.2979 95.425 73.0848 92.2118 69.1212 92.2118C65.1575 92.2118 61.9443 95.425 61.9443 99.3886C61.9443 103.352 65.1575 106.565 69.1212 106.565Z" fill="white"/>
</svg>
